<?xml version="1.0" encoding="UTF-8" standalone="no"?>
<svg
   xmlns:dc="http://purl.org/dc/elements/1.1/"
   xmlns:cc="http://creativecommons.org/ns#"
   xmlns:rdf="http://www.w3.org/1999/02/22-rdf-syntax-ns#"
   xmlns:svg="http://www.w3.org/2000/svg"
   xmlns="http://www.w3.org/2000/svg"
   xmlns:sodipodi="http://sodipodi.sourceforge.net/DTD/sodipodi-0.dtd"
   xmlns:inkscape="http://www.inkscape.org/namespaces/inkscape"
   width="80.199997"
   height="72.199997"
   viewBox="0 0 80.199997 72.199997"
   version="1.1"
   id="svg6"
   sodipodi:docname="temp.svg"
   inkscape:version="0.92.5 (2060ec1f9f, 2020-04-08)">
  <metadata
     id="metadata12">
    <rdf:RDF>
      <cc:Work
         rdf:about="">
        <dc:format>image/svg+xml</dc:format>
        <dc:type
           rdf:resource="http://purl.org/dc/dcmitype/StillImage" />
        <dc:title>TheChanceryLaneProject</dc:title>
      </cc:Work>
    </rdf:RDF>
  </metadata>
  <defs
     id="defs10" />
  <sodipodi:namedview
     pagecolor="#ffffff"
     bordercolor="#666666"
     borderopacity="1"
     objecttolerance="10"
     gridtolerance="10"
     guidetolerance="10"
     inkscape:pageopacity="0"
     inkscape:pageshadow="2"
     inkscape:window-width="1854"
     inkscape:window-height="1043"
     id="namedview8"
     showgrid="false"
     fit-margin-top="0.1"
     fit-margin-left="0.1"
     fit-margin-bottom="0.1"
     fit-margin-right="0.1"
     inkscape:zoom="2.3605442"
     inkscape:cx="19.256088"
     inkscape:cy="34.939546"
     inkscape:window-x="1986"
     inkscape:window-y="0"
     inkscape:window-maximized="1"
     inkscape:current-layer="svg6" />
  <title
     id="title2">TheChanceryLaneProject</title>
  <g
     id="Page-1"
     style="fill:none;fill-rule:evenodd;stroke:none;stroke-width:1"
     transform="translate(0.1,0.1)">
    <path
       d="M 80,0 V 72 H 70 v -2.593587 h 7.226387 V 2.5985598 H 70 V 0 Z M 10,0 V 2.5948298 H 2.7736132 V 69.402683 H 10 V 72 H 0 V 0 Z m 30.574749,5 c 0.302732,0.00123 0.607957,0.00735 0.910689,0.017155 0.104649,0.00245 0.208051,0.00613 0.315191,0.012254 0.256638,0.0098 0.514521,0.023282 0.771158,0.040437 0.07599,0.0049 0.15199,0.00858 0.227984,0.014704 0.317683,0.023282 0.631628,0.051465 0.933114,0.079649 0.09842,0.0098 0.195593,0.022057 0.291521,0.033085 0.244179,0.028183 0.483375,0.057592 0.725063,0.090677 v 0 l 0.277816,0.039212 c 0.310208,0.045339 0.620415,0.094353 0.924394,0.1494945 0.08098,0.013479 0.16071,0.029409 0.240442,0.045338 0.244179,0.045339 0.484621,0.093128 0.727555,0.1433677 v 0 l 0.290274,0.063719 c 0.302733,0.06617 0.606711,0.1372409 0.908198,0.2144389 0.0436,0.0098 0.08596,0.023282 0.129565,0.033085 0.26785,0.068621 0.530716,0.140917 0.794828,0.218115 0.09593,0.026958 0.191856,0.055142 0.286538,0.083325 0.251654,0.073522 0.498325,0.1531707 0.747487,0.2340448 0.05606,0.017155 0.112124,0.03431 0.166939,0.052691 0.294012,0.095579 0.584287,0.1972837 0.873316,0.3038905 0.08596,0.03186 0.171922,0.064944 0.260374,0.098029 0.227984,0.08455 0.452231,0.1727765 0.678969,0.2634535 0.0735,0.03186 0.149497,0.061268 0.224246,0.090677 0.284045,0.1176351 0.564353,0.2377208 0.843416,0.3627081 0.07101,0.03186 0.140777,0.064944 0.210542,0.096804 0.224246,0.1017053 0.446001,0.2070867 0.667756,0.3136935 0.07849,0.039212 0.158218,0.077198 0.23795,0.1164096 0.276571,0.1360156 0.548158,0.2757072 0.8185,0.4215256 v 0 l 0.122089,0.067395 c 0.236705,0.1262126 0.470918,0.2610028 0.705131,0.3945675 0.07599,0.042888 0.151989,0.088226 0.227983,0.1335649 0.246671,0.1433677 0.489605,0.2904115 0.728801,0.439906 0.02492,0.01593 0.04983,0.029409 0.07475,0.044113 0.261621,0.1654243 0.52075,0.3357509 0.778633,0.5097529 l 0.101378,0.06862 v 0 l 0.100444,0.06862 c 0.21428,0.144593 0.424822,0.294088 0.632873,0.446033 0.04983,0.03431 0.09842,0.06862 0.147006,0.104156 0.251654,0.182581 0.495834,0.368836 0.740013,0.559993 0.0461,0.03431 0.09095,0.06985 0.134548,0.105381 -0.07849,0.04534 -0.147006,0.133565 -0.30647,0.224242 -0.2828,-0.485245 -0.343845,-0.577148 -0.996651,-0.447259 -0.518258,0.846728 -0.117106,0.746247 0.300241,1.254774 -0.564353,-0.0772 -1.072645,-0.431329 -1.658177,-0.330849 -0.381219,0.06862 -0.225492,0.06127 -0.381219,0.346779 -0.429806,-0.176453 -0.409873,-0.02328 -0.840924,0.02206 -0.524487,0.05514 -0.507046,-0.08455 -0.878298,-0.04534 -0.594253,0.06004 -1.015338,0.529357 -1.445144,0.585724 -0.301486,-0.485244 0.196839,-0.432554 -0.419839,-0.493822 -0.223,0.322272 -0.117106,0.207088 -0.01744,0.615133 -0.596745,0.06862 -0.799812,-0.01593 -0.977963,0.577147 -0.176906,-0.03186 -0.35132,-0.06372 -0.526979,-0.100479 -0.147006,0.176453 -0.01993,0.0674 -0.108386,0.345553 -0.536946,-0.161749 -0.585532,-0.161749 -0.702639,-0.746247 0.634119,-0.03799 1.053958,0.291636 1.494976,-0.161748 -0.138285,-0.753601 -1.965893,-0.760953 -2.570113,-1.00725 -0.781125,-0.31492 -1.220897,-0.490146 -2.293542,-0.137242 -0.295258,0.09803 -0.588024,0.121312 -0.81227,0.221792 v 0 l -0.03862,0.01593 -0.01869,0.0074 c -0.382464,0.193608 -0.07849,0.21444 -0.723817,0.238947 -0.182988,0.482865 -0.06762,0.408054 -0.122016,0.451455 l -0.04932,0.03946 c -0.04786,0.03954 -0.129417,0.110956 -0.267189,0.246757 -0.452231,0.43868 -0.381219,0.762177 -0.870824,0.9227 -0.303978,0.09313 -1.083857,0.292862 -1.24083,0.662922 -0.01869,0.492597 0,1.083223 0.419839,1.238844 0.431052,0.161748 0.625399,-0.284284 1.162344,-0.368836 0.147006,0.590626 0.370007,0.498724 0.431051,0.975391 -0.117106,0.06127 -0.245425,0.123762 -0.351319,0.18503 -0.411118,-0.291636 0.01869,-0.116409 -0.322666,-0.553864 -0.155726,0.06862 -0.313944,0.138466 -0.477146,0.20096 -0.118352,0.991319 0.585532,0.960685 -0.499571,1.14449 -0.673985,0.109057 -0.408627,0.425202 -0.965505,0.778107 -0.388694,0.246298 -0.645332,0.606555 -1.046484,0.686205 -0.449738,0.0821 -0.399906,0.191156 -0.781124,0.274481 -0.32142,0.07107 -0.04734,-0.144593 -0.418594,0.10048 0.165693,0.346778 0.487113,0.30144 0.732538,0.661698 0.234213,0.361482 0.204314,0.731542 0,1.107729 -0.438526,0.361483 -1.972122,-0.514653 -2.167715,0.37006 -0.07724,0.352905 0,0.522006 -0.08721,0.876136 -0.156972,0.631063 -0.156972,0.461963 0.04734,1.145717 0.488359,0.01593 0.939344,0.10048 0.702639,0.754824 -0.164447,0.529358 -0.584286,0.461963 -0.877052,0.798938 -0.331387,0.415399 -0.213034,0.738896 -0.38994,1.192281 -0.204313,0.508526 -1.005371,0.517104 -1.53235,1.653017 -1.006617,2.138262 -0.713851,0.601654 -0.509538,2.371082 0.118352,0.952108 -0.682705,1.790258 -0.01,2.621055 0.206805,0.259778 0.655297,0.607782 0.801057,0.868784 0.441018,0.722966 -0.05855,0.430103 0.685198,1.00725 0.05918,0.0462 0.115218,0.09023 0.168319,0.132181 l 0.284845,0.22747 c 1.136817,0.917609 0.409811,0.446149 1.606165,0.287342 0.595499,-0.08455 0.792337,0.221791 1.318071,-0.01593 0.06469,-0.0296 0.129358,-0.0607 0.19383,-0.09229 l 0.192637,-0.09529 c 0.702794,-0.347535 1.359204,-0.634263 1.72394,0.47309 0.879544,0.03676 1.503697,-0.330849 1.230864,1.10773 -0.216772,1.252323 -0.305225,0.982743 0.36004,1.74492 0.605465,0.699684 0.692672,1.502298 0.839678,2.391913 0.01993,0.170326 0.09717,0.300214 0.117106,0.515878 0.05108,0.806291 -1.159304,1.556975 -0.378727,2.98499 0.607288,1.110995 0.488359,1.938527 0.839678,3.030327 0.04983,0.153171 0.13704,0.316145 0.235459,0.48402 v 0 l 0.01993,0.03553 c 0.201822,0.343102 0.441018,0.716839 0.546912,1.165322 0.105894,0.506076 -0.186872,0.597979 0.244179,0.959461 0.155727,0.107832 1.980843,0.087 2.831734,-0.683753 0.174414,-0.155622 0.272833,-0.223017 0.458459,-0.460738 0.215526,-0.264678 0.195593,-0.377412 0.378727,-0.661697 0.255392,-0.361482 0.285292,-0.123762 0.460951,-0.569795 0.165693,-0.368834 0.08845,-0.606555 0.184381,-0.90677 0.265358,-0.208312 0.528224,-0.225467 0.742504,-0.514653 0.275325,-1.270704 -0.458459,-1.13959 0.256638,-1.900541 0.672739,-0.699684 1.209684,-0.839375 1.375378,-1.069744 0.761192,-1.00725 -0.5058,-3.415092 -0.08721,-4.285101 0.370006,-0.767079 0.556878,-0.851629 0.955538,-1.492495 0.733784,-1.183703 1.689323,-1.160421 2.236235,-2.705606 0.168185,-0.460737 0.819745,-1.307465 0.517013,-1.838048 -0.2529,-0.192382 -1.736664,0.460737 -2.233743,0.322271 -0.323912,-0.759726 -0.127073,-0.931277 -0.890757,-1.499847 -1.014092,-0.760951 -0.33014,-0.62371 -0.985438,-1.399367 -0.312699,-0.377412 -0.194347,-0.307566 -0.292766,-0.868783 -0.06977,-0.408047 -0.302733,-0.530583 -0.448493,-0.816093 -0.148252,-0.285511 -0.732538,-1.454509 -0.624152,-1.798836 0.515766,-0.06862 0.779879,0.615133 1.002879,1.052588 0.147006,0.28551 0.313945,0.384765 0.421085,0.615134 0.155727,0.307566 0.05731,0.531808 0.292766,0.876136 0.49708,0.800163 0.477147,0.200959 0.966751,1.746145 0.165693,0.45461 0.330141,0.907995 0.49708,1.354028 0.769912,-0.04534 1.494976,-0.599203 2.227514,-0.860206 0.682705,-0.247524 0.244179,-0.202185 0.632873,-0.525682 0.264112,-0.213213 0.421085,-0.105381 0.712605,-0.290411 0.382465,-0.238946 1.534842,-1.552538 1.389082,-2.039008 -0.294012,-0.360257 -0.206805,-0.227918 -0.655298,-0.452159 -0.566845,-0.285511 -0.186872,-0.346779 -0.576811,-0.707036 -0.399906,0.290411 -0.575566,0.638415 -1.308104,0.590626 -0.01,-0.03921 -0.05855,-0.322271 -0.06852,-0.330849 -0.10714,-0.298989 -0.361286,-0.452159 -0.566845,-0.676401 -0.280308,-0.291637 -0.595499,-0.430103 -0.564353,-1.062392 0.749979,-0.390891 0.652806,0.30144 1.169818,0.732769 0.791092,0.666598 0.721326,0.368835 1.534842,0.329623 0.458459,0.606555 0.525733,0.561217 1.298138,0.631063 0.428559,0.04656 1.445143,-0.09925 1.709255,-0.01593 0.340107,0.307567 0.682706,0.616359 1.014092,0.9227 0.156973,0.300214 0.02865,0.421526 0.312699,0.624936 0.401152,0.275707 0.381219,0.01348 0.801058,-0.04779 0.08845,0.253651 0.147006,0.976616 0.235459,1.352803 0.156973,0.708261 0.39866,1.162871 0.615432,1.778005 0.125827,0.360257 0.662772,1.668947 0.791091,1.692229 0.399906,0.06127 0.741259,-0.746247 0.811025,-1.046462 0.175659,-0.814868 0.03737,-0.968038 0.118352,-1.653017 0.652806,-0.392117 1.032779,-1.053814 1.618311,-1.537834 0.490851,-0.408046 0.196839,-0.243847 0.477147,-0.635964 v 0 l 0.03239,-0.04166 c 0.702639,-0.115184 0.722572,-0.131114 1.31807,-0.321045 0.09219,0.264679 0.188118,0.447258 0.275325,0.584499 v 0 l 0.106724,0.635883 C 70.878864,31.923664 71,33.447922 71,34.999387 71,51.568774 57.344641,65 40.5,65 c -4.896046,0 -9.520505,-1.135913 -13.620476,-3.149188 -0.0137,-0.0061 -0.02616,-0.01348 -0.03987,-0.01961 -0.631628,-0.310017 -1.248305,-0.642091 -1.851279,-0.993771 -0.01619,-0.0098 -0.03364,-0.01961 -0.04983,-0.02941 -0.600482,-0.350454 -1.188506,-0.722965 -1.76158,-1.111406 -0.01744,-0.01225 -0.03488,-0.02328 -0.05357,-0.03676 -0.570583,-0.389666 -1.127461,-0.797713 -1.668144,-1.22414 -0.01869,-0.01348 -0.03488,-0.02696 -0.05232,-0.04044 -0.540683,-0.430103 -1.066416,-0.87491 -1.5772,-1.338098 -0.0137,-0.01348 -0.0299,-0.02818 -0.0436,-0.04166 -0.510784,-0.465638 -1.006618,-0.947207 -1.483764,-1.44348 -0.01,-0.01225 -0.02243,-0.02573 -0.03364,-0.03799 -0.227984,-0.240172 -0.450984,-0.481569 -0.672739,-0.729092 -0.01246,-0.01348 -0.02492,-0.02696 -0.03862,-0.04044 -0.22923,-0.258552 -0.453476,-0.51833 -0.675231,-0.784234 -0.0062,-0.0061 -0.01,-0.01348 -0.01495,-0.01961 -0.210542,-0.252425 -0.41361,-0.508526 -0.615431,-0.768304 l -0.0598,-0.0772 c -0.411118,-0.531808 -0.803549,-1.07587 -1.176047,-1.635862 v 0 l -0.07226,-0.105381 C 14.572134,50.820059 14.22206,50.25394 13.893165,49.674342 v 0 l -0.0735,-0.129888 c -0.325157,-0.574697 -0.630381,-1.161647 -0.918164,-1.759625 -0.02367,-0.04901 -0.04609,-0.09925 -0.06976,-0.149494 -0.13704,-0.290412 -0.274079,-0.584499 -0.401152,-0.881038 v 0 l -0.0062,-0.01348 c -0.130811,-0.306341 -0.25913,-0.615133 -0.381219,-0.926376 -0.01993,-0.05147 -0.03987,-0.104156 -0.0598,-0.156846 -0.108386,-0.281834 -0.213034,-0.563668 -0.315191,-0.849178 -0.01,-0.03186 -0.02118,-0.06372 -0.03115,-0.09313 -0.109632,-0.312468 -0.211789,-0.628612 -0.311454,-0.944757 -0.01619,-0.05269 -0.0299,-0.104156 -0.04609,-0.156846 -0.08596,-0.279384 -0.165693,-0.561218 -0.244179,-0.845502 v 0 l -0.03987,-0.143368 c -0.08596,-0.318595 -0.165693,-0.642091 -0.240442,-0.965588 -0.01121,-0.04656 -0.01869,-0.09435 -0.03115,-0.140917 -0.06354,-0.28551 -0.124581,-0.57347 -0.180642,-0.861431 v 0 l -0.03613,-0.18258 c -0.0598,-0.327172 -0.117106,-0.656795 -0.166939,-0.987644 -0.0062,-0.03554 -0.01121,-0.07107 -0.0162,-0.106607 -0.04485,-0.297763 -0.08472,-0.597978 -0.120843,-0.900643 -0.0075,-0.06862 -0.01495,-0.137241 -0.02118,-0.204636 -0.03862,-0.336975 -0.06977,-0.675176 -0.09593,-1.014602 -0.0025,-0.01348 -0.0025,-0.02573 -0.005,-0.03921 -0.02367,-0.323496 -0.03987,-0.649443 -0.05357,-0.974165 -0.0037,-0.0723 -0.0062,-0.147044 -0.0075,-0.220566 C 10.007475,35.685592 10,35.343715 10,34.999387 c 0,-2.220361 0.245425,-4.384356 0.711359,-6.467477 0.722572,0.862657 0.432298,0.773206 0.45846,1.706934 0.498325,0.446033 1.239584,0.829572 1.954681,1.160421 0.838432,0.38599 0.388693,0.262228 1.199718,0.155621 0.536945,-0.07842 0.595499,0.345553 0.918164,0.615133 0.722572,0.645768 1.298138,-0.08455 1.904849,1.221689 0.08607,0.189825 0.09609,0.257635 0.09676,0.287027 l -1.6e-4,0.01773 c 0.0015,0.02853 0.0419,-0.0011 0.654622,0.579953 0.322666,0.18503 0.655298,0.368835 0.986684,0.553865 0.21428,-0.339426 0.01993,-0.437455 0.429806,-0.613908 0.21428,0.151945 0.46718,0.635965 0.555632,0.982743 0.411119,1.883386 -1.582182,1.862555 -0.712605,3.428571 -0.165693,0.416624 -0.362532,0.3333 -0.234213,0.833248 0.115861,0.544063 0.2828,0.392117 0.546912,0.738896 0.564354,0.722965 1.239584,2.65414 1.953436,3.144286 0.0087,0.01593 0.0299,0.02328 0.05731,0.03186 0.518258,0.345553 1.162344,0.545287 1.426456,0.97539 0.06727,0.118861 0.123336,0.273257 0.169431,0.455836 0.285291,1.143266 0.175659,3.372205 0.444755,4.313285 0.412364,1.423874 0.03987,1.514551 0.186872,2.369856 0.06852,0.368835 0.215526,0.393342 0.332632,0.999898 0.05855,0.360257 0.14576,0.794037 0.254146,1.083223 0.459705,-0.213214 -0.127073,-0.159298 0.205559,-0.289186 0.331387,-0.139692 0.05855,0.666598 0.02865,0.836924 -0.125827,0.600429 0.17566,0.800163 0.235459,0.985194 0.10714,0.313693 -0.03987,0.529357 0.331386,0.998672 0.05108,0.06739 0.08456,0.109211 0.109087,0.138505 l 0.05536,0.06337 c 0.03052,0.03462 0.0598,0.07138 0.156973,0.214745 0.341353,0.506076 0.811024,0.858981 1.316824,1.129787 0.296504,0.154396 1.000388,0.460737 1.330529,0.383539 0.389939,-0.0919 0.284045,-0.04656 0.294012,-0.490146 -0.77365,-0.05514 -1.066416,-0.624936 -1.427702,-1.155519 0.06852,-0.360258 0.302732,-0.991321 0.332632,-1.222915 -0.225492,-0.300214 -0.401152,-0.276932 -0.655298,-0.393342 0.05855,-0.698458 0.108386,-0.144593 0.274079,-0.745022 0.06852,-0.246298 0.127073,-0.491371 0.206805,-0.745022 -0.431051,-0.263453 -0.195593,0.121311 -0.449738,-0.339426 0.18438,-0.18503 0.311453,-0.06862 0.595498,-0.18503 0.06727,-0.800163 -0.244179,-0.661697 0.487113,-0.800163 0.879545,-0.160523 0.809779,-0.654345 0.379973,-1.307465 -0.134548,-0.214439 -0.04734,-0.05269 -0.18438,-0.290411 1.443897,0.252425 1.102545,-0.123762 1.589658,-1.247422 0.118352,-0.26958 0.255391,-0.354131 0.441018,-0.693557 0.644085,-1.189829 -0.782371,-1.659144 1.669389,-2.336771 0.673985,-0.176452 0.878299,-1.638313 0.918165,-2.345349 0.04859,-1.231491 -0.322666,-0.977841 0.761192,-2.531604 0.351319,-0.506075 0.458459,-1.131012 0.03987,-1.708159 -0.303979,-0.197283 -0.381219,-0.06862 -0.702639,-0.298989 -0.840924,-0.62126 -0.411118,-0.523231 -1.516155,-0.700908 -0.712605,-0.122537 -0.469671,-0.02941 -0.789845,-0.336976 -0.558125,-0.530583 -1.102545,-0.208312 -1.503697,-0.722965 -0.08721,-0.20096 -0.17566,-0.400695 -0.254146,-0.609007 -0.03987,-0.08455 -0.09717,-0.15317 -0.128319,-0.221791 -0.204313,-0.446033 -0.03737,-0.441131 -0.408626,-0.785459 -0.879545,-0.839375 -0.879545,-0.278158 -1.650703,-0.575921 -0.388694,-0.368835 -0.791091,-0.748698 -1.192243,-1.12366 -0.07724,-0.115184 -0.08721,-0.223017 -0.185626,-0.332074 -0.0087,-0.0074 -0.03862,-0.02818 -0.04734,-0.03676 0,-0.01593 -0.02865,-0.03186 -0.03862,-0.03186 -0.07973,-0.02328 -0.168184,-0.04411 -0.236704,-0.07597 -0.580549,-0.204636 -0.624153,0 -1.048975,-0.0061 -0.140777,-0.0025 -0.318928,-0.02573 -0.571828,-0.09435 -0.584287,-0.161748 -0.644085,-0.738895 -1.152377,-0.145818 -0.07724,-0.155622 -0.165694,-0.307567 -0.242934,-0.469315 -0.07101,0.04534 -0.128319,0.08455 -0.196838,0.122536 -0.692673,0.40192 -0.769913,0.0919 -1.063925,0.746248 -0.164447,0.376187 -0.05731,0.18503 -0.312699,0.492596 -0.449739,-0.06985 -0.36004,-0.37006 -0.848399,-0.28551 -0.439772,0.0772 -0.469672,0.398244 -0.966751,0.03799 -0.403332,-0.297152 -0.382796,-0.769013 -0.325578,-1.282457 l 0.03563,-0.311992 c 0.02256,-0.209902 0.0386,-0.422196 0.02334,-0.628364 -0.837187,-0.491371 -0.85712,-0.01348 -1.492484,-0.267129 -0.10714,-0.286736 0.108386,-0.661697 0.186872,-0.870009 0.117106,-0.352905 0.2529,-0.691106 0.165693,-1.153069 -0.888265,-0.139692 -0.819745,0.153171 -1.09507,0.691106 -0.408627,0.807515 -2.009497,0.707036 -2.078016,-1.021954 -0.03987,-0.638416 0.224246,-1.061167 0.341352,-1.638314 0.09842,-0.476667 0.480884,-0.653119 0.879545,-0.922699 0.722571,-0.460738 0.965505,0.09313 1.465076,-0.01593 0.449738,-0.09068 0.301487,-0.613908 1.38659,-0.307567 1.005371,0.284285 0.751225,-0.121311 0.936852,1.10773 0.234212,0.08455 0.477146,0.1691 0.731292,0.246298 -0.06603,-1.853977 -0.652806,-1.354028 0.566845,-2.429898 0.381219,-0.329624 0.517012,-0.323497 0.928131,-0.585725 0.489605,-0.307567 0.596744,-0.321046 0.489605,-1.115082 0.01744,-0.0147 0.03737,-0.03799 0.06727,-0.06127 0.292766,-0.276933 0.595499,-0.561218 0.898232,-0.846728 0.303978,-0.306341 0.801058,-0.453385 1.229617,-0.585724 0.05855,-0.629838 0.134548,-0.659247 0.635365,-0.860206 v 0 l 0.03987,-0.0147 c 0.388694,-0.160523 0.693918,-0.345553 1.102545,-0.384764 -0.281554,0.439906 -0.186872,-0.09313 -0.186872,0.53916 0.411118,-0.09435 0.568091,-0.301439 1.083857,-0.45461 0.470918,-0.145819 0.801058,-0.145819 0.882036,-0.676402 -0.302732,0.05392 -1.465076,0.676402 -1.153623,-0.330848 0.127073,-0.393342 0.176906,0.05269 0.205559,-0.537936 -0.216771,-0.08578 -0.418593,-0.1691 -0.625398,-0.262228 0.909444,-0.485244 0.742505,0.03799 1.229618,0.262228 0.138285,-0.215664 0.04111,-0.02451 0.02118,-0.224241 -0.0062,-0.09068 -0.01744,-0.142143 -0.02616,-0.170326 0.358794,-0.04534 0.622906,0.02451 0.964259,-0.07597 0.378727,-0.115184 0.341353,-0.276932 0.868332,-0.368835 -0.262867,0.645768 -0.671493,0.654345 -0.898232,1.284183 0.09842,0.03186 1.573463,0.348004 1.60087,0.348004 0.01,-0.287961 0.01993,-0.57102 0.0299,-0.862657 -0.185626,-0.0772 -0.371252,-0.155622 -0.546912,-0.240172 0.274079,-1.008475 0.899477,-1.445931 -0.507046,-1.983866 -0.117106,-0.730317 -0.04859,-0.99132 -0.312699,-1.600327 -0.585532,0.0919 -0.478392,0.463188 -0.956785,0.545288 -0.624152,0.09925 -0.409872,-0.438681 -0.399906,-0.855305 -0.526979,-0.229143 -0.264112,-0.344328 -0.751225,-0.428878 -0.147006,-0.03063 -0.819745,-0.10048 -0.985438,-0.106606 -0.171923,0.198509 -0.289029,0.384764 -0.373744,0.557541 -0.555633,1.162871 0.480884,1.785356 -1.666898,2.227713 -0.158219,0.542837 -0.178152,1.396916 -0.812271,0.959461 -0.271587,-0.446033 0.119598,-0.770754 0.119598,-1.199632 -0.27657,-0.04779 -0.499571,-0.09313 -0.67523,-0.139692 -0.908198,-0.254876 -0.615432,-0.522005 -1.522384,-0.575921 -0.06105,-0.683754 -0.166939,-0.300215 -0.156973,-0.877362 0.378727,-0.345553 1.014092,-0.722965 1.689323,-1.052589 0.595499,-0.284284 1.229618,-0.531808 1.736664,-0.684979 -0.08721,0.162974 -0.17566,0.323497 -0.264113,0.476667 0.625399,0.361483 0.352565,0.537936 0.675231,0.421526 0.29152,-0.107832 0,-0.137241 0,-0.144593 -0.04983,-0.123762 -0.606711,-0.09926 0.01744,-0.329623 0.295258,-0.102931 0.441018,0.03676 0.723818,0.0919 -0.03737,-0.800163 -0.46718,-0.292862 -0.632873,-0.954559 0.36004,0.151945 0.630381,0.122536 0.859611,-0.0074 0.378727,-0.214439 0.637856,-0.699684 0.985438,-1.091801 0.741259,0 0.898232,-0.139691 1.446389,0.406822 0.242934,0.236495 0.09717,-0.06985 0.264113,0.300214 -0.09842,0.107832 -0.713851,0.577147 -0.81227,0.622485 -0.556879,0.278158 -0.742505,-0.177677 -1.123724,0.291637 0.188118,0.169101 0.441018,0.08455 0.635365,0.07842 0.312699,-0.02573 0.342598,0.02206 0.519504,0.214439 0.468426,0.508526 0.320174,0.414173 1.101299,0.622485 0.04983,-0.05269 0.09842,-0.107832 0.155726,-0.1691 0.01246,-0.01593 0.0299,-0.03921 0.04983,-0.05269 v 0 l 0.04983,-0.03186 c 0.321419,-0.176452 0.04859,0.169101 0.477146,-0.08455 0.489605,-0.284284 -0.03737,-0.485244 -0.04734,-1.00725 0.566845,-0.05392 0.254146,0.30144 0.781125,0.294088 0.381219,-0.0086 0.566845,-0.270806 0.645331,-0.524456 -0.362531,-0.446033 -0.402397,-0.237721 -0.67523,-0.438681 -0.311454,-0.231594 -0.125828,-0.507301 -0.32142,-0.798938 -0.128319,-0.183805 -0.507046,-0.231594 -0.722572,-0.323497 -0.959276,-0.430103 0.517013,-0.569794 -2.5888,-0.594302 -0.271587,0 -0.512029,0.05147 -0.712605,0.147044 -0.297749,0.137241 -0.507046,0.371286 -0.606711,0.678852 0.128319,0.238947 0.352565,0.238947 0.507046,0.439906 -0.154481,0.308793 -0.566845,0.606556 -0.985438,0.638416 0.234212,-1.146942 -0.469672,0.252425 -0.302733,-1.416522 0.381219,-0.153171 0.819745,-0.167875 1.113757,-0.437456 -0.117106,-0.06862 -0.245425,-0.139691 -0.350074,-0.216889 -0.56809,-0.106607 -0.81227,0.469315 -1.163589,0.686204 -0.117106,-0.262228 0.02865,-0.25365 0.05855,-0.562442 -0.449738,-0.03063 -1.055204,0.08577 -1.367903,0.422751 0.323912,0.323496 0.254146,0.262228 0.771159,0.362708 -0.331387,0.638415 0.188117,0.645767 -0.42856,0.998672 -0.0087,-0.02083 -0.0162,-0.07842 -0.02616,-0.06985 0,-0.01225 -0.01246,-0.06127 -0.01246,-0.06862 -0.0299,-0.11641 -0.0598,-0.231594 -0.07849,-0.345553 -0.14576,-0.0086 -0.254146,0 -0.342598,0.03063 -0.223001,0.08332 -0.300241,0.284285 -0.42856,0.514653 -0.348828,0.01348 -0.817253,0.09435 -1.17231,-0.02573 0.110877,-0.09926 0.224246,-0.197284 0.337615,-0.297764 0.185626,-0.02328 0.188118,-0.104156 0.678968,-0.221791 -0.04111,-0.161748 -0.06852,-0.161748 -0.108385,-0.224242 v 0 l -0.0137,-0.02818 C 26.143248,7.6602675 33.005187,5 40.5,5 v 0 z m 16.232946,37.175125 c -0.431051,0.213214 -0.49085,0.70581 -0.811024,0.982743 -0.351319,0.314919 -0.820991,0.170326 -0.956785,0.754825 -0.175659,0.730317 0.292767,0.507301 -0.225492,1.460635 -0.18438,0.35413 -0.194347,1.236393 0.0897,1.499847 0.848399,0.80629 1.306858,-1.231492 1.502451,-1.869907 0.14576,-0.453385 0.284045,-0.968039 0.439772,-1.392015 0.155726,-0.453385 0.378727,-0.85408 -0.03862,-1.436128 z m 0.234231,-23.046634 c 0.571634,-0.237509 0.832907,-0.153971 1.068845,0.319408 -0.273941,0.52252 0.07284,0.05078 -0.386368,0.360359 -0.209018,0.142505 -0.123511,0 -0.406953,0.23587 0.07284,0.810806 1.016591,1.429967 1.599309,1.62325 -0.110843,0.524158 0,0.095 -0.22327,0.401308 -0.02533,0.01966 -0.161514,0.12285 -0.212185,0.206387 0.297693,0.687957 0.60647,0.637179 0.495627,1.644544 -0.79332,0.226043 -1.241444,-0.05078 -1.847914,-0.504502 -0.01267,-0.832099 0.123511,-0.678128 0.188433,-1.274357 C 56.805988,21.564185 56.085508,21.082615 56,19.826276 c 0.136179,-0.111384 0.794904,-0.594591 1.041926,-0.697785 z m -3.21603,-0.0629 c 0.229658,-0.09813 0.372047,-0.06014 0.612423,-0.04907 0.04746,0.766048 -0.156168,0.139282 -0.191382,0.933819 0.695101,0.376692 1.704069,0.705903 1.753063,1.570081 -0.935477,0.677414 -1.632109,0 -2.458881,-0.19626 -0.347551,-0.09022 -1.56015,0.286476 -1.956694,0.425758 -0.419511,0.140864 0.01225,0.129784 -0.552713,0.250073 -0.07196,-0.43842 0.03522,0.128202 0.04746,-0.348203 0,-0.03007 -0.01225,-0.06964 0,-0.101296 -0.0245,-0.792954 -0.191382,-0.286477 0.04899,-1.022452 0.154637,-0.485902 0.49147,-0.962308 0.779309,-1.282022 0.719598,0.02058 0.695101,0.288059 1.067149,0.824609 0.191382,-0.01899 0.444007,-0.01899 0.600175,-0.158274 0.552712,-0.527054 0.03675,-0.01108 0.01225,-0.43842 0,-0.08863 -0.300087,-0.159857 0.238846,-0.408348 z M 40.800241,15.875115 c -0.508292,0.171551 -0.458459,0.123762 -0.802304,0.425202 -0.01744,1.074645 0.361286,0.714387 0.722572,1.24497 -0.161956,0.453385 -0.193101,0.09926 -0.378727,0.56857 -0.165693,0.393342 0.03987,0.03921 -0.06727,0.722965 0.282799,0.01593 0.702639,-0.08455 1.072645,-0.11641 0.528225,-0.04534 0.517012,-0.0919 0.703884,-0.622485 -0.294011,-0.352905 -0.586778,-0.707036 -0.888264,-1.059941 -0.382465,-0.569794 0,-0.176452 -0.118353,-0.654345 -0.08721,-0.1691 -0.165693,-0.336975 -0.244179,-0.508526 z"
       id="TheChanceryLaneProject"
       inkscape:connector-curvature="0"
       style="fill:#000000;fill-rule:nonzero"
       sodipodi:nodetypes="ccccccccccccccccccccccccccccccccccccccccccccccscccccccccccccccccccccccccccccccccccccccccccccccccccccccccccccccccccccccccccccscccccccccccccccccccccccccccccccccccccccccccccccccccccccccccsscccccccccccccccccccccccccccccccccccccccccccccccccccscccccccccccccccccccccccccccccccccccccccccccccccccccccccccccccccccccccccccccccccccccccccccccccccccccccccccccccccccccccccccccccccccccccccccccccccccccccccccccccccccccccccccccccccccccccccccccccccccccccccccccccccccccccccccccccccccc" />
  </g>
</svg>
