<?xml version="1.0" encoding="UTF-8" standalone="no"?>
<svg
   xmlns:dc="http://purl.org/dc/elements/1.1/"
   xmlns:cc="http://creativecommons.org/ns#"
   xmlns:rdf="http://www.w3.org/1999/02/22-rdf-syntax-ns#"
   xmlns:svg="http://www.w3.org/2000/svg"
   xmlns="http://www.w3.org/2000/svg"
   xmlns:sodipodi="http://sodipodi.sourceforge.net/DTD/sodipodi-0.dtd"
   xmlns:inkscape="http://www.inkscape.org/namespaces/inkscape"
   width="294px"
   height="78px"
   viewBox="0 0 294 78"
   version="1.1"
   id="svg6"
   sodipodi:docname="white_tclp.svg"
   inkscape:version="0.92.5 (2060ec1f9f, 2020-04-08)">
  <metadata
     id="metadata12">
    <rdf:RDF>
      <cc:Work
         rdf:about="">
        <dc:format>image/svg+xml</dc:format>
        <dc:type
           rdf:resource="http://purl.org/dc/dcmitype/StillImage" />
        <dc:title>TheChanceryLaneProject</dc:title>
      </cc:Work>
    </rdf:RDF>
  </metadata>
  <defs
     id="defs10" />
  <sodipodi:namedview
     pagecolor="#ffffff"
     bordercolor="#666666"
     borderopacity="1"
     objecttolerance="10"
     gridtolerance="10"
     guidetolerance="10"
     inkscape:pageopacity="0"
     inkscape:pageshadow="2"
     inkscape:window-width="1854"
     inkscape:window-height="1043"
     id="namedview8"
     showgrid="false"
     inkscape:pagecheckerboard="true"
     inkscape:zoom="1.1802721"
     inkscape:cx="147"
     inkscape:cy="39"
     inkscape:window-x="1986"
     inkscape:window-y="0"
     inkscape:window-maximized="1"
     inkscape:current-layer="svg6" />
  <title
     id="title2">TheChanceryLaneProject</title>
  <g
     id="Page-1"
     stroke="none"
     stroke-width="1"
     fill="none"
     fill-rule="evenodd"
     style="fill:#ffffff;fill-opacity:1">
    <path
       d="M103.736,20 L103.736,1.632 L110.708,1.632 L110.708,0.008 L94.888,0.008 L94.888,1.632 L101.832,1.632 L101.832,20 L103.736,20 Z M113.984,20 L113.984,11.572 C114.002667,10.8626667 114.119333,10.2046667 114.334,9.598 C114.548667,8.99133333 114.847333,8.46866667 115.23,8.03 C115.612667,7.59133333 116.079333,7.246 116.63,6.994 C117.180667,6.742 117.810667,6.616 118.52,6.616 C119.229333,6.616 119.822,6.728 120.298,6.952 C120.774,7.176 121.152,7.484 121.432,7.876 C121.712,8.268 121.908,8.73 122.02,9.262 C122.132,9.794 122.188,10.368 122.188,10.984 L122.188,20 L123.952,20 L123.952,10.704 C123.952,9.84533333 123.868,9.07066667 123.7,8.38 C123.532,7.68933333 123.242667,7.106 122.832,6.63 C122.421333,6.154 121.875333,5.78533333 121.194,5.524 C120.512667,5.26266667 119.668,5.132 118.66,5.132 C117.633333,5.132 116.690667,5.398 115.832,5.93 C114.973333,6.462 114.376,7.16666667 114.04,8.044 L113.984,8.044 L113.984,0.008 L112.22,0.008 L112.22,20 L113.984,20 Z M133.08,20.392 C134.909333,20.392 136.323333,19.944 137.322,19.048 C138.320667,18.152 139.006667,16.8826667 139.38,15.24 L137.616,15.24 C137.336,16.36 136.832,17.256 136.104,17.928 C135.376,18.6 134.368,18.936 133.08,18.936 C132.24,18.936 131.521333,18.7586667 130.924,18.404 C130.326667,18.0493333 129.832,17.6013333 129.44,17.06 C129.048,16.5186667 128.763333,15.9073333 128.586,15.226 C128.408667,14.5446667 128.32,13.8866667 128.32,13.252 L139.436,13.252 C139.473333,12.244 139.38,11.25 139.156,10.27 C138.932,9.29 138.563333,8.422 138.05,7.666 C137.536667,6.91 136.869333,6.29866667 136.048,5.832 C135.226667,5.36533333 134.237333,5.132 133.08,5.132 C131.941333,5.132 130.956667,5.35133333 130.126,5.79 C129.295333,6.22866667 128.618667,6.80733333 128.096,7.526 C127.573333,8.24466667 127.186,9.06133333 126.934,9.976 C126.682,10.8906667 126.556,11.824 126.556,12.776 C126.556,13.8026667 126.682,14.778 126.934,15.702 C127.186,16.626 127.573333,17.438 128.096,18.138 C128.618667,18.838 129.295333,19.3886667 130.126,19.79 C130.956667,20.1913333 131.941333,20.392 133.08,20.392 Z M137.672,11.768 L128.32,11.768 C128.394667,11.1146667 128.548667,10.4753333 128.782,9.85 C129.015333,9.22466667 129.328,8.674 129.72,8.198 C130.112,7.722 130.588,7.33933333 131.148,7.05 C131.708,6.76066667 132.352,6.616 133.08,6.616 C133.789333,6.616 134.424,6.76066667 134.984,7.05 C135.544,7.33933333 136.02,7.722 136.412,8.198 C136.804,8.674 137.107333,9.22 137.322,9.836 C137.536667,10.452 137.653333,11.096 137.672,11.768 Z M104.812,46.448 C106.044,46.448 107.173333,46.2613333 108.2,45.888 C109.226667,45.5146667 110.122667,44.9733333 110.888,44.264 C111.653333,43.5546667 112.269333,42.696 112.736,41.688 C113.202667,40.68 113.492,39.5506667 113.604,38.3 L109.348,38.3 C109.18,39.644 108.718,40.7266667 107.962,41.548 C107.206,42.3693333 106.156,42.78 104.812,42.78 C103.822667,42.78 102.982667,42.5886667 102.292,42.206 C101.601333,41.8233333 101.041333,41.3146667 100.612,40.68 C100.182667,40.0453333 99.87,39.3313333 99.674,38.538 C99.478,37.7446667 99.38,36.928 99.38,36.088 C99.38,35.2106667 99.478,34.3613333 99.674,33.54 C99.87,32.7186667 100.182667,31.986 100.612,31.342 C101.041333,30.698 101.601333,30.1846667 102.292,29.802 C102.982667,29.4193333 103.822667,29.228 104.812,29.228 C105.353333,29.228 105.871333,29.3166667 106.366,29.494 C106.860667,29.6713333 107.304,29.9186667 107.696,30.236 C108.088,30.5533333 108.414667,30.922 108.676,31.342 C108.937333,31.762 109.105333,32.224 109.18,32.728 L113.436,32.728 C113.305333,31.5706667 112.988,30.544 112.484,29.648 C111.98,28.752 111.340667,28.0006667 110.566,27.394 C109.791333,26.7873333 108.914,26.3253333 107.934,26.008 C106.954,25.6906667 105.913333,25.532 104.812,25.532 C103.281333,25.532 101.904667,25.8026667 100.682,26.344 C99.4593333,26.8853333 98.428,27.632 97.588,28.584 C96.748,29.536 96.104,30.6513333 95.656,31.93 C95.208,33.2086667 94.984,34.5946667 94.984,36.088 C94.984,37.544 95.208,38.902 95.656,40.162 C96.104,41.422 96.748,42.5186667 97.588,43.452 C98.428,44.3853333 99.4593333,45.118 100.682,45.65 C101.904667,46.182 103.281333,46.448 104.812,46.448 Z M120.156,46 L120.156,38.412 C120.156,36.9373333 120.398667,35.878 120.884,35.234 C121.369333,34.59 122.153333,34.268 123.236,34.268 C124.188,34.268 124.850667,34.562 125.224,35.15 C125.597333,35.738 125.784,36.6293333 125.784,37.824 L125.784,46 L129.76,46 L129.76,37.096 C129.76,36.2 129.680667,35.3833333 129.522,34.646 C129.363333,33.9086667 129.088,33.2833333 128.696,32.77 C128.304,32.2566667 127.767333,31.8553333 127.086,31.566 C126.404667,31.2766667 125.532,31.132 124.468,31.132 C123.721333,31.132 122.956,31.3233333 122.172,31.706 C121.388,32.0886667 120.744,32.7 120.24,33.54 L120.156,33.54 L120.156,26.008 L116.18,26.008 L116.18,46 L120.156,46 Z M137.096,46.364 C137.992,46.364 138.869333,46.2333333 139.728,45.972 C140.586667,45.7106667 141.333333,45.2533333 141.968,44.6 C141.986667,44.8426667 142.019333,45.0806667 142.066,45.314 C142.112667,45.5473333 142.173333,45.776 142.248,46 L142.248,46 L146.28,46 C146.093333,45.7013333 145.962667,45.2533333 145.888,44.656 C145.813333,44.0586667 145.776,43.4333333 145.776,42.78 L145.776,42.78 L145.776,35.248 C145.776,34.3706667 145.58,33.666 145.188,33.134 C144.796,32.602 144.292,32.1866667 143.676,31.888 C143.06,31.5893333 142.378667,31.3886667 141.632,31.286 C140.885333,31.1833333 140.148,31.132 139.42,31.132 C138.617333,31.132 137.819333,31.2113333 137.026,31.37 C136.232667,31.5286667 135.518667,31.7946667 134.884,32.168 C134.249333,32.5413333 133.726667,33.036 133.316,33.652 C132.905333,34.268 132.672,35.0426667 132.616,35.976 L132.616,35.976 L136.592,35.976 C136.666667,35.192 136.928,34.632 137.376,34.296 C137.824,33.96 138.44,33.792 139.224,33.792 C139.578667,33.792 139.91,33.8153333 140.218,33.862 C140.526,33.9086667 140.796667,34.002 141.03,34.142 C141.263333,34.282 141.45,34.478 141.59,34.73 C141.73,34.982 141.8,35.3226667 141.8,35.752 C141.818667,36.1626667 141.697333,36.4753333 141.436,36.69 C141.174667,36.9046667 140.82,37.068 140.372,37.18 C139.924,37.292 139.410667,37.376 138.832,37.432 C138.253333,37.488 137.665333,37.5626667 137.068,37.656 C136.470667,37.7493333 135.878,37.8753333 135.29,38.034 C134.702,38.1926667 134.179333,38.4306667 133.722,38.748 C133.264667,39.0653333 132.891333,39.49 132.602,40.022 C132.312667,40.554 132.168,41.2306667 132.168,42.052 C132.168,42.7986667 132.294,43.4426667 132.546,43.984 C132.798,44.5253333 133.148,44.9733333 133.596,45.328 C134.044,45.6826667 134.566667,45.944 135.164,46.112 C135.761333,46.28 136.405333,46.364 137.096,46.364 Z M138.58,43.732 C138.262667,43.732 137.954667,43.704 137.656,43.648 C137.357333,43.592 137.096,43.494 136.872,43.354 C136.648,43.214 136.470667,43.0226667 136.34,42.78 C136.209333,42.5373333 136.144,42.2386667 136.144,41.884 C136.144,41.5106667 136.209333,41.2026667 136.34,40.96 C136.470667,40.7173333 136.643333,40.5166667 136.858,40.358 C137.072667,40.1993333 137.324667,40.0733333 137.614,39.98 C137.903333,39.8866667 138.197333,39.812 138.496,39.756 C138.813333,39.7 139.130667,39.6533333 139.448,39.616 C139.765333,39.5786667 140.068667,39.532 140.358,39.476 C140.647333,39.42 140.918,39.35 141.17,39.266 C141.422,39.182 141.632,39.0653333 141.8,38.916 L141.8,38.916 L141.8,40.4 C141.8,40.624 141.776667,40.9226667 141.73,41.296 C141.683333,41.6693333 141.557333,42.038 141.352,42.402 C141.146667,42.766 140.829333,43.0786667 140.4,43.34 C139.970667,43.6013333 139.364,43.732 138.58,43.732 Z M152.832,46 L152.832,38.412 C152.832,36.9373333 153.074667,35.878 153.56,35.234 C154.045333,34.59 154.829333,34.268 155.912,34.268 C156.864,34.268 157.526667,34.562 157.9,35.15 C158.273333,35.738 158.46,36.6293333 158.46,37.824 L158.46,46 L162.436,46 L162.436,37.096 C162.436,36.2 162.356667,35.3833333 162.198,34.646 C162.039333,33.9086667 161.764,33.2833333 161.372,32.77 C160.98,32.2566667 160.443333,31.8553333 159.762,31.566 C159.080667,31.2766667 158.208,31.132 157.144,31.132 C156.304,31.132 155.482667,31.3233333 154.68,31.706 C153.877333,32.0886667 153.224,32.7 152.72,33.54 L152.636,33.54 L152.636,31.524 L148.856,31.524 L148.856,46 L152.832,46 Z M172.32,46.364 C174.242667,46.364 175.82,45.86 177.052,44.852 C178.284,43.844 179.030667,42.3786667 179.292,40.456 L175.456,40.456 C175.325333,41.352 175.003333,42.066 174.49,42.598 C173.976667,43.13 173.244,43.396 172.292,43.396 C171.676,43.396 171.153333,43.256 170.724,42.976 C170.294667,42.696 169.954,42.3366667 169.702,41.898 C169.45,41.4593333 169.268,40.9693333 169.156,40.428 C169.044,39.8866667 168.988,39.3546667 168.988,38.832 C168.988,38.2906667 169.044,37.7446667 169.156,37.194 C169.268,36.6433333 169.459333,36.1393333 169.73,35.682 C170.000667,35.2246667 170.350667,34.8513333 170.78,34.562 C171.209333,34.2726667 171.741333,34.128 172.376,34.128 C174.074667,34.128 175.054667,34.9586667 175.316,36.62 L179.208,36.62 C179.152,35.6866667 178.928,34.8793333 178.536,34.198 C178.144,33.5166667 177.635333,32.9473333 177.01,32.49 C176.384667,32.0326667 175.675333,31.692 174.882,31.468 C174.088667,31.244 173.262667,31.132 172.404,31.132 C171.228,31.132 170.182667,31.328 169.268,31.72 C168.353333,32.112 167.578667,32.658 166.944,33.358 C166.309333,34.058 165.828667,34.8886667 165.502,35.85 C165.175333,36.8113333 165.012,37.852 165.012,38.972 C165.012,40.0546667 165.189333,41.0486667 165.544,41.954 C165.898667,42.8593333 166.393333,43.6386667 167.028,44.292 C167.662667,44.9453333 168.432667,45.454 169.338,45.818 C170.243333,46.182 171.237333,46.364 172.32,46.364 Z M188.224,46.364 C189.866667,46.364 191.266667,45.9906667 192.424,45.244 C193.581333,44.4973333 194.44,43.256 195,41.52 L191.5,41.52 C191.369333,41.968 191.014667,42.3926667 190.436,42.794 C189.857333,43.1953333 189.166667,43.396 188.364,43.396 C187.244,43.396 186.385333,43.1066667 185.788,42.528 C185.190667,41.9493333 184.864,41.016 184.808,39.728 L195.252,39.728 C195.326667,38.608 195.233333,37.5346667 194.972,36.508 C194.710667,35.4813333 194.286,34.5666667 193.698,33.764 C193.11,32.9613333 192.358667,32.322 191.444,31.846 C190.529333,31.37 189.456,31.132 188.224,31.132 C187.122667,31.132 186.119333,31.328 185.214,31.72 C184.308667,32.112 183.529333,32.6486667 182.876,33.33 C182.222667,34.0113333 181.718667,34.8186667 181.364,35.752 C181.009333,36.6853333 180.832,37.6933333 180.832,38.776 C180.832,39.896 181.004667,40.9226667 181.35,41.856 C181.695333,42.7893333 182.185333,43.592 182.82,44.264 C183.454667,44.936 184.229333,45.454 185.144,45.818 C186.058667,46.182 187.085333,46.364 188.224,46.364 Z M191.276,37.208 L184.808,37.208 C184.826667,36.928 184.887333,36.6106667 184.99,36.256 C185.092667,35.9013333 185.27,35.5653333 185.522,35.248 C185.774,34.9306667 186.11,34.6646667 186.53,34.45 C186.95,34.2353333 187.477333,34.128 188.112,34.128 C189.082667,34.128 189.806,34.3893333 190.282,34.912 C190.758,35.4346667 191.089333,36.2 191.276,37.208 Z M201.58,46 L201.58,39.476 C201.58,38.8226667 201.645333,38.216 201.776,37.656 C201.906667,37.096 202.126,36.606 202.434,36.186 C202.742,35.766 203.148,35.4346667 203.652,35.192 C204.156,34.9493333 204.772,34.828 205.5,34.828 C205.742667,34.828 205.994667,34.842 206.256,34.87 C206.517333,34.898 206.741333,34.9306667 206.928,34.968 L206.928,31.272 C206.610667,31.1786667 206.321333,31.132 206.06,31.132 C205.556,31.132 205.070667,31.2066667 204.604,31.356 C204.137333,31.5053333 203.698667,31.7153333 203.288,31.986 C202.877333,32.2566667 202.513333,32.5833333 202.196,32.966 C201.878667,33.3486667 201.626667,33.764 201.44,34.212 L201.384,34.212 L201.384,31.524 L197.604,31.524 L197.604,46 L201.58,46 Z M210.652,51.068 C212.014667,51.068 213.078667,50.816 213.844,50.312 C214.609333,49.808 215.206667,48.968 215.636,47.792 L221.684,31.524 L217.568,31.524 L214.404,41.436 L214.348,41.436 L211.072,31.524 L206.844,31.524 L211.912,45.104 C212.024,45.384 212.08,45.6826667 212.08,46 C212.08,46.4293333 211.954,46.8213333 211.702,47.176 C211.45,47.5306667 211.062667,47.736 210.54,47.792 C210.148,47.8106667 209.756,47.8013333 209.364,47.764 C208.972,47.7266667 208.589333,47.6893333 208.216,47.652 L208.216,50.928 C208.626667,50.9653333 209.032667,50.998 209.434,51.026 C209.835333,51.054 210.241333,51.068 210.652,51.068 Z M245.372,46 L245.372,42.304 L235.628,42.304 L235.628,26.008 L231.232,26.008 L231.232,46 L245.372,46 Z M251.728,46.364 C252.624,46.364 253.501333,46.2333333 254.36,45.972 C255.218667,45.7106667 255.965333,45.2533333 256.6,44.6 C256.618667,44.8426667 256.651333,45.0806667 256.698,45.314 C256.744667,45.5473333 256.805333,45.776 256.88,46 L256.88,46 L260.912,46 C260.725333,45.7013333 260.594667,45.2533333 260.52,44.656 C260.445333,44.0586667 260.408,43.4333333 260.408,42.78 L260.408,42.78 L260.408,35.248 C260.408,34.3706667 260.212,33.666 259.82,33.134 C259.428,32.602 258.924,32.1866667 258.308,31.888 C257.692,31.5893333 257.010667,31.3886667 256.264,31.286 C255.517333,31.1833333 254.78,31.132 254.052,31.132 C253.249333,31.132 252.451333,31.2113333 251.658,31.37 C250.864667,31.5286667 250.150667,31.7946667 249.516,32.168 C248.881333,32.5413333 248.358667,33.036 247.948,33.652 C247.537333,34.268 247.304,35.0426667 247.248,35.976 L247.248,35.976 L251.224,35.976 C251.298667,35.192 251.56,34.632 252.008,34.296 C252.456,33.96 253.072,33.792 253.856,33.792 C254.210667,33.792 254.542,33.8153333 254.85,33.862 C255.158,33.9086667 255.428667,34.002 255.662,34.142 C255.895333,34.282 256.082,34.478 256.222,34.73 C256.362,34.982 256.432,35.3226667 256.432,35.752 C256.450667,36.1626667 256.329333,36.4753333 256.068,36.69 C255.806667,36.9046667 255.452,37.068 255.004,37.18 C254.556,37.292 254.042667,37.376 253.464,37.432 C252.885333,37.488 252.297333,37.5626667 251.7,37.656 C251.102667,37.7493333 250.51,37.8753333 249.922,38.034 C249.334,38.1926667 248.811333,38.4306667 248.354,38.748 C247.896667,39.0653333 247.523333,39.49 247.234,40.022 C246.944667,40.554 246.8,41.2306667 246.8,42.052 C246.8,42.7986667 246.926,43.4426667 247.178,43.984 C247.43,44.5253333 247.78,44.9733333 248.228,45.328 C248.676,45.6826667 249.198667,45.944 249.796,46.112 C250.393333,46.28 251.037333,46.364 251.728,46.364 Z M253.212,43.732 C252.894667,43.732 252.586667,43.704 252.288,43.648 C251.989333,43.592 251.728,43.494 251.504,43.354 C251.28,43.214 251.102667,43.0226667 250.972,42.78 C250.841333,42.5373333 250.776,42.2386667 250.776,41.884 C250.776,41.5106667 250.841333,41.2026667 250.972,40.96 C251.102667,40.7173333 251.275333,40.5166667 251.49,40.358 C251.704667,40.1993333 251.956667,40.0733333 252.246,39.98 C252.535333,39.8866667 252.829333,39.812 253.128,39.756 C253.445333,39.7 253.762667,39.6533333 254.08,39.616 C254.397333,39.5786667 254.700667,39.532 254.99,39.476 C255.279333,39.42 255.55,39.35 255.802,39.266 C256.054,39.182 256.264,39.0653333 256.432,38.916 L256.432,38.916 L256.432,40.4 C256.432,40.624 256.408667,40.9226667 256.362,41.296 C256.315333,41.6693333 256.189333,42.038 255.984,42.402 C255.778667,42.766 255.461333,43.0786667 255.032,43.34 C254.602667,43.6013333 253.996,43.732 253.212,43.732 Z M267.464,46 L267.464,38.412 C267.464,36.9373333 267.706667,35.878 268.192,35.234 C268.677333,34.59 269.461333,34.268 270.544,34.268 C271.496,34.268 272.158667,34.562 272.532,35.15 C272.905333,35.738 273.092,36.6293333 273.092,37.824 L273.092,46 L277.068,46 L277.068,37.096 C277.068,36.2 276.988667,35.3833333 276.83,34.646 C276.671333,33.9086667 276.396,33.2833333 276.004,32.77 C275.612,32.2566667 275.075333,31.8553333 274.394,31.566 C273.712667,31.2766667 272.84,31.132 271.776,31.132 C270.936,31.132 270.114667,31.3233333 269.312,31.706 C268.509333,32.0886667 267.856,32.7 267.352,33.54 L267.268,33.54 L267.268,31.524 L263.488,31.524 L263.488,46 L267.464,46 Z M286.784,46.364 C288.426667,46.364 289.826667,45.9906667 290.984,45.244 C292.141333,44.4973333 293,43.256 293.56,41.52 L290.06,41.52 C289.929333,41.968 289.574667,42.3926667 288.996,42.794 C288.417333,43.1953333 287.726667,43.396 286.924,43.396 C285.804,43.396 284.945333,43.1066667 284.348,42.528 C283.750667,41.9493333 283.424,41.016 283.368,39.728 L293.812,39.728 C293.886667,38.608 293.793333,37.5346667 293.532,36.508 C293.270667,35.4813333 292.846,34.5666667 292.258,33.764 C291.67,32.9613333 290.918667,32.322 290.004,31.846 C289.089333,31.37 288.016,31.132 286.784,31.132 C285.682667,31.132 284.679333,31.328 283.774,31.72 C282.868667,32.112 282.089333,32.6486667 281.436,33.33 C280.782667,34.0113333 280.278667,34.8186667 279.924,35.752 C279.569333,36.6853333 279.392,37.6933333 279.392,38.776 C279.392,39.896 279.564667,40.9226667 279.91,41.856 C280.255333,42.7893333 280.745333,43.592 281.38,44.264 C282.014667,44.936 282.789333,45.454 283.704,45.818 C284.618667,46.182 285.645333,46.364 286.784,46.364 Z M289.836,37.208 L283.368,37.208 C283.386667,36.928 283.447333,36.6106667 283.55,36.256 C283.652667,35.9013333 283.83,35.5653333 284.082,35.248 C284.334,34.9306667 284.67,34.6646667 285.09,34.45 C285.51,34.2353333 286.037333,34.128 286.672,34.128 C287.642667,34.128 288.366,34.3893333 288.842,34.912 C289.318,35.4346667 289.649333,36.2 289.836,37.208 Z M98.356,72 L98.356,63.432 L105.328,63.432 C106.224,63.432 107.036,63.306 107.764,63.054 C108.492,62.802 109.117333,62.4286667 109.64,61.934 C110.162667,61.4393333 110.564,60.8373333 110.844,60.128 C111.124,59.4186667 111.264,58.616 111.264,57.72 C111.264,56.824 111.124,56.0213333 110.844,55.312 C110.564,54.6026667 110.162667,54.0006667 109.64,53.506 C109.117333,53.0113333 108.492,52.638 107.764,52.386 C107.036,52.134 106.224,52.008 105.328,52.008 L96.452,52.008 L96.452,72 L98.356,72 Z M104.908,61.808 L98.356,61.808 L98.356,53.632 L104.908,53.632 C106.233333,53.632 107.306667,53.968 108.128,54.64 C108.949333,55.312 109.36,56.3386667 109.36,57.72 C109.36,59.1013333 108.949333,60.128 108.128,60.8 C107.306667,61.472 106.233333,61.808 104.908,61.808 Z M115.52,72 L115.52,64.3 C115.52,63.5346667 115.650667,62.83 115.912,62.186 C116.173333,61.542 116.542,60.9866667 117.018,60.52 C117.494,60.0533333 118.058667,59.694 118.712,59.442 C119.365333,59.19 120.093333,59.0826667 120.896,59.12 L120.896,57.356 C119.589333,57.3 118.464667,57.5893333 117.522,58.224 C116.579333,58.8586667 115.884,59.764 115.436,60.94 L115.38,60.94 L115.38,57.552 L113.756,57.552 L113.756,72 L115.52,72 Z M128.68,72.392 C129.781333,72.392 130.756667,72.1913333 131.606,71.79 C132.455333,71.3886667 133.169333,70.8426667 133.748,70.152 C134.326667,69.4613333 134.765333,68.654 135.064,67.73 C135.362667,66.806 135.512,65.8213333 135.512,64.776 C135.512,63.7306667 135.362667,62.746 135.064,61.822 C134.765333,60.898 134.326667,60.0906667 133.748,59.4 C133.169333,58.7093333 132.455333,58.1586667 131.606,57.748 C130.756667,57.3373333 129.781333,57.132 128.68,57.132 C127.578667,57.132 126.603333,57.3373333 125.754,57.748 C124.904667,58.1586667 124.190667,58.7093333 123.612,59.4 C123.033333,60.0906667 122.594667,60.898 122.296,61.822 C121.997333,62.746 121.848,63.7306667 121.848,64.776 C121.848,65.8213333 121.997333,66.806 122.296,67.73 C122.594667,68.654 123.033333,69.4613333 123.612,70.152 C124.190667,70.8426667 124.904667,71.3886667 125.754,71.79 C126.603333,72.1913333 127.578667,72.392 128.68,72.392 Z M128.68,70.936 C127.84,70.936 127.102667,70.7586667 126.468,70.404 C125.833333,70.0493333 125.306,69.5826667 124.886,69.004 C124.466,68.4253333 124.148667,67.7673333 123.934,67.03 C123.719333,66.2926667 123.612,65.5413333 123.612,64.776 C123.612,64.0106667 123.719333,63.2593333 123.934,62.522 C124.148667,61.7846667 124.466,61.1266667 124.886,60.548 C125.306,59.9693333 125.833333,59.5026667 126.468,59.148 C127.102667,58.7933333 127.84,58.616 128.68,58.616 C129.52,58.616 130.257333,58.7933333 130.892,59.148 C131.526667,59.5026667 132.054,59.9693333 132.474,60.548 C132.894,61.1266667 133.211333,61.7846667 133.426,62.522 C133.640667,63.2593333 133.748,64.0106667 133.748,64.776 C133.748,65.5413333 133.640667,66.2926667 133.426,67.03 C133.211333,67.7673333 132.894,68.4253333 132.474,69.004 C132.054,69.5826667 131.526667,70.0493333 130.892,70.404 C130.257333,70.7586667 129.52,70.936 128.68,70.936 Z M139.936,54.836 L139.936,52.008 L138.172,52.008 L138.172,54.836 L139.936,54.836 Z M136.856,77.32 C137.472,77.32 137.980667,77.2126667 138.382,76.998 C138.783333,76.7833333 139.100667,76.494 139.334,76.13 C139.567333,75.766 139.726,75.3413333 139.81,74.856 C139.894,74.3706667 139.936,73.8573333 139.936,73.316 L139.936,57.552 L138.172,57.552 L138.172,73.736 C138.172,74.3333333 138.078667,74.8326667 137.892,75.234 C137.705333,75.6353333 137.266667,75.836 136.576,75.836 C136.445333,75.8546667 136.296,75.8593333 136.128,75.85 C135.96,75.8406667 135.801333,75.8266667 135.652,75.808 L135.652,77.264 C135.857333,77.264 136.058,77.2733333 136.254,77.292 C136.45,77.3106667 136.650667,77.32 136.856,77.32 Z M149.12,72.392 C150.949333,72.392 152.363333,71.944 153.362,71.048 C154.360667,70.152 155.046667,68.8826667 155.42,67.24 L153.656,67.24 C153.376,68.36 152.872,69.256 152.144,69.928 C151.416,70.6 150.408,70.936 149.12,70.936 C148.28,70.936 147.561333,70.7586667 146.964,70.404 C146.366667,70.0493333 145.872,69.6013333 145.48,69.06 C145.088,68.5186667 144.803333,67.9073333 144.626,67.226 C144.448667,66.5446667 144.36,65.8866667 144.36,65.252 L155.476,65.252 C155.513333,64.244 155.42,63.25 155.196,62.27 C154.972,61.29 154.603333,60.422 154.09,59.666 C153.576667,58.91 152.909333,58.2986667 152.088,57.832 C151.266667,57.3653333 150.277333,57.132 149.12,57.132 C147.981333,57.132 146.996667,57.3513333 146.166,57.79 C145.335333,58.2286667 144.658667,58.8073333 144.136,59.526 C143.613333,60.2446667 143.226,61.0613333 142.974,61.976 C142.722,62.8906667 142.596,63.824 142.596,64.776 C142.596,65.8026667 142.722,66.778 142.974,67.702 C143.226,68.626 143.613333,69.438 144.136,70.138 C144.658667,70.838 145.335333,71.3886667 146.166,71.79 C146.996667,72.1913333 147.981333,72.392 149.12,72.392 Z M153.712,63.768 L144.36,63.768 C144.434667,63.1146667 144.588667,62.4753333 144.822,61.85 C145.055333,61.2246667 145.368,60.674 145.76,60.198 C146.152,59.722 146.628,59.3393333 147.188,59.05 C147.748,58.7606667 148.392,58.616 149.12,58.616 C149.829333,58.616 150.464,58.7606667 151.024,59.05 C151.584,59.3393333 152.06,59.722 152.452,60.198 C152.844,60.674 153.147333,61.22 153.362,61.836 C153.576667,62.452 153.693333,63.096 153.712,63.768 Z M163.96,72.392 C165.602667,72.392 166.946667,71.902 167.992,70.922 C169.037333,69.942 169.681333,68.5746667 169.924,66.82 L168.16,66.82 C168.104,67.4173333 167.954667,67.968 167.712,68.472 C167.469333,68.976 167.161333,69.41 166.788,69.774 C166.414667,70.138 165.985333,70.4226667 165.5,70.628 C165.014667,70.8333333 164.501333,70.936 163.96,70.936 C163.12,70.936 162.382667,70.7586667 161.748,70.404 C161.113333,70.0493333 160.586,69.5826667 160.166,69.004 C159.746,68.4253333 159.428667,67.7673333 159.214,67.03 C158.999333,66.2926667 158.892,65.5413333 158.892,64.776 C158.892,64.0106667 158.999333,63.2593333 159.214,62.522 C159.428667,61.7846667 159.746,61.1266667 160.166,60.548 C160.586,59.9693333 161.113333,59.5026667 161.748,59.148 C162.382667,58.7933333 163.12,58.616 163.96,58.616 C165.136,58.616 166.050667,58.924 166.704,59.54 C167.357333,60.156 167.805333,61.0053333 168.048,62.088 L169.812,62.088 C169.606667,60.4266667 168.967333,59.1853333 167.894,58.364 C166.820667,57.5426667 165.509333,57.132 163.96,57.132 C162.858667,57.132 161.883333,57.3373333 161.034,57.748 C160.184667,58.1586667 159.470667,58.7093333 158.892,59.4 C158.313333,60.0906667 157.874667,60.898 157.576,61.822 C157.277333,62.746 157.128,63.7306667 157.128,64.776 C157.128,65.8213333 157.277333,66.806 157.576,67.73 C157.874667,68.654 158.313333,69.4613333 158.892,70.152 C159.470667,70.8426667 160.184667,71.3886667 161.034,71.79 C161.883333,72.1913333 162.858667,72.392 163.96,72.392 Z M175.188,53.212 L175.188,57.552 L178.128,57.552 L178.128,59.036 L175.188,59.036 L175.188,68.78 C175.188,69.3586667 175.267333,69.8113333 175.426,70.138 C175.584667,70.4646667 175.981333,70.6466667 176.616,70.684 C177.12,70.684 177.624,70.656 178.128,70.6 L178.128,70.6 L178.128,72.084 C177.866667,72.084 177.605333,72.0933333 177.344,72.112 L177.344,72.112 L176.952,72.133 L176.56,72.14 C175.384,72.14 174.562667,71.9113333 174.096,71.454 C173.629333,70.9966667 173.405333,70.152 173.424,68.92 L173.424,59.036 L170.904,59.036 L170.904,57.552 L173.424,57.552 L173.424,53.212 L175.188,53.212 Z M80,0 L80,72 L70,72 L70,69.4064135 L77.2263868,69.4064135 L77.2263868,2.59855981 L70,2.59855981 L70,0 L80,0 Z M10,0 L10,2.59482982 L2.77361319,2.59482982 L2.77361319,69.4026835 L10,69.4026835 L10,72 L0,72 L0,0 L10,0 Z M40.5747488,5 C40.8774814,5.00122537 41.1827057,5.00735219 41.4854383,5.01715511 C41.5900866,5.01960584 41.6934891,5.02328194 41.800629,5.02940876 C42.0572666,5.03921168 42.3151499,5.0526907 42.5717874,5.06984581 C42.647782,5.07474727 42.7237767,5.07842336 42.7997713,5.08455019 C43.1174536,5.10783212 43.4313986,5.13601552 43.7328854,5.16419892 C43.8313046,5.17400184 43.9284781,5.18625549 44.0244057,5.19728377 C44.2685851,5.22546717 44.5077812,5.25487593 44.749469,5.28796079 L44.749469,5.28796079 L45.0272854,5.32717247 C45.3374929,5.37251098 45.6477004,5.42152558 45.9516788,5.47666701 C46.0326566,5.49014602 46.1123887,5.50607577 46.1921207,5.52200551 C46.4363001,5.56734402 46.6767421,5.61513326 46.9196757,5.66537323 L46.9196757,5.66537323 L47.2099502,5.72909221 C47.5126828,5.79526192 47.8166612,5.8663331 48.118148,5.94353109 C48.1617515,5.95333401 48.2041091,5.96681303 48.2477126,5.97661595 C48.5155625,6.04523639 48.778429,6.11753293 49.0425415,6.19473093 C49.1384691,6.22168896 49.2343967,6.24987236 49.3290785,6.27805575 C49.5807328,6.35157766 49.8274038,6.43122639 50.0765665,6.51210048 C50.1326281,6.52925559 50.1886896,6.5464107 50.2435054,6.56479118 C50.5375174,6.66036965 50.8277918,6.76207495 51.1168205,6.86868171 C51.2027816,6.9005412 51.2887427,6.93362606 51.3771955,6.96671092 C51.6051793,7.0512611 51.8294257,7.13948739 52.0561637,7.2301644 C52.1296667,7.26202389 52.2056613,7.29143266 52.2804101,7.32084142 C52.5644555,7.43847646 52.8447635,7.55856224 53.1238257,7.68354947 C53.194837,7.71540897 53.2646026,7.74849382 53.3343681,7.78035331 C53.5586145,7.88205861 53.7803693,7.98744001 54.002124,8.09404677 C54.0806102,8.13325845 54.1603423,8.17124477 54.2400743,8.21045645 C54.5166449,8.34647197 54.7882322,8.48616359 55.0585736,8.63198203 L55.0585736,8.63198203 L55.1806633,8.69937711 C55.4173679,8.82558971 55.6515808,8.96037986 55.8857936,9.09394465 C55.9617883,9.13683243 56.0377829,9.18217094 56.1137775,9.22750945 C56.3604485,9.37087716 56.6033821,9.51792096 56.8425782,9.6674155 C56.8674945,9.68334525 56.8924108,9.69682426 56.917327,9.71152864 C57.1789478,9.87695293 57.438077,10.0472787 57.6959603,10.2212805 L57.7973384,10.2899009 L57.7973384,10.2899009 L57.897782,10.3585214 C58.1120619,10.5031145 58.3226044,10.652609 58.5306552,10.8045543 C58.5804877,10.8388645 58.6290744,10.8731747 58.6776611,10.9087103 C58.9293154,11.0912897 59.1734948,11.2775452 59.4176742,11.4687021 C59.4637693,11.5030124 59.5086186,11.5385479 59.552222,11.5740835 C59.4737358,11.619422 59.4052161,11.7076483 59.245752,11.7983253 C58.9629524,11.3130808 58.9019075,11.2211784 58.2491014,11.3510671 C57.7308431,12.1977943 58.1319949,12.0973144 58.5493424,12.6058409 C57.984989,12.5286429 57.4766972,12.1745124 56.8911649,12.2749923 C56.5099461,12.3436128 56.6656727,12.3362606 56.5099461,12.6217707 C56.0801405,12.4453181 56.1000735,12.5984887 55.6690221,12.6438272 C55.1445348,12.6989687 55.1619761,12.559277 54.7907238,12.5984887 C54.1964709,12.6585316 53.775386,13.1278464 53.3455804,13.1842132 C53.0440936,12.6989687 53.5424189,12.7516593 52.9257414,12.6903911 C52.7027408,13.0126621 52.8086349,12.8974778 52.9083,13.3055244 C52.3115554,13.3741448 52.1084879,13.2895946 51.9303366,13.8826713 C51.7534311,13.8508118 51.5790172,13.8189523 51.4033576,13.7821914 C51.2563516,13.9586439 51.3834246,13.8495864 51.2949718,14.1277443 C50.7580263,13.9659961 50.7094396,13.9659961 50.5923331,13.381497 C51.2264521,13.3435107 51.6462912,13.6731339 52.087309,13.2197488 C51.9490238,12.4661493 50.1214157,12.4587971 49.5171963,12.2124987 C48.7360714,11.8975799 48.2962993,11.7223527 47.2236541,12.0752578 C46.9283964,12.173287 46.6356303,12.196569 46.4113839,12.2970489 L46.4113839,12.2970489 L46.3727637,12.3129787 L46.3540765,12.3203308 C45.9716118,12.5139385 46.2755902,12.5347697 45.630259,12.559277 C45.447271,13.0421429 45.5626402,12.9673321 45.5082428,13.0107321 L45.4589215,13.0501907 C45.4110648,13.0897287 45.329505,13.1611475 45.1917327,13.2969468 C44.7395025,13.7356275 44.8105138,14.0591239 44.3209092,14.2196467 C44.0169308,14.3127744 43.2370517,14.5125089 43.0800792,14.8825692 C43.061392,15.3751659 43.0800792,15.9657919 43.4999183,16.1214133 C43.9309697,16.2831614 44.1253166,15.8371286 44.6622621,15.7525784 C44.809268,16.3432043 45.0322686,16.251302 45.0933135,16.727969 C44.976207,16.7892372 44.8478882,16.8517308 44.7419941,16.9129991 C44.3308757,16.6213622 44.7606813,16.7965894 44.4193285,16.3591341 C44.2636018,16.4277545 44.1053835,16.4976003 43.942182,16.5600939 C43.8238298,17.5514143 44.5277142,17.5207801 43.4426109,17.7045849 C42.7686259,17.8136424 43.0339842,18.1297866 42.4771056,18.4826917 C42.0884119,18.7289901 41.8317744,19.0892474 41.4306225,19.1688962 C40.9808839,19.2509956 41.0307164,19.3600531 40.6494976,19.4433779 C40.3280778,19.5144491 40.6021567,19.2987848 40.2309043,19.5438579 C40.3965975,19.8906362 40.7180173,19.8452977 40.9634425,20.205555 C41.1976554,20.5670377 41.1677559,20.9370979 40.9634425,21.313285 C40.5249163,21.6747677 38.9913202,20.7986317 38.7957275,21.6833452 C38.7184871,22.0362504 38.7957275,22.2053508 38.7085205,22.5594813 C38.5515481,23.1905443 38.5515481,23.0214439 38.7558614,23.7051976 C39.2442202,23.7211273 39.6952046,23.8056775 39.4585001,24.4600225 C39.2940528,24.9893802 38.8742137,24.9219851 38.5814476,25.2589605 C38.2500613,25.6743592 38.3684135,25.9978556 38.191508,26.4512407 C37.9871947,26.9597672 37.1861368,26.9683447 36.6591577,28.1042581 C35.6525406,30.2425202 35.9453068,28.7059124 36.1496201,30.4753395 C36.2679724,31.4274482 35.4669145,32.2655979 36.1396536,33.0963954 C36.3464586,33.3561728 36.7949514,33.7041765 36.9407115,33.9651792 C37.3817294,34.6881446 36.8821583,34.3952823 37.6259088,34.9724293 C37.685085,35.0186255 37.7411272,35.062657 37.7942279,35.1046101 L38.0790734,35.3320801 C39.2158905,36.2496886 38.4888837,35.7782293 39.6852381,35.619422 C40.2807369,35.5348718 40.4775754,35.8412131 41.0033086,35.6034923 C41.067995,35.573895 41.1326667,35.5427968 41.1971394,35.5111995 L41.389776,35.4159116 C42.0925695,35.0683775 42.7489804,34.7816494 43.1137162,35.8890023 C43.9932604,35.9257633 44.6174128,35.5581538 44.3445797,36.9967324 C44.1278082,38.2490554 44.0393554,37.9794751 44.7046197,38.7416522 C45.310085,39.4413356 45.3972919,40.2439498 45.5442979,41.1335648 C45.5642309,41.3038905 45.6414713,41.4337792 45.6614043,41.6494435 C45.7124826,42.4557337 44.5102729,43.201981 45.2826771,44.6344328 C45.8981088,45.7409374 45.7710359,46.5729603 46.1223552,47.6647605 C46.1721877,47.8179312 46.2593947,47.9809047 46.3578139,48.1487797 L46.3578139,48.1487797 L46.3777469,48.1843153 C46.5795687,48.5274175 46.8187648,48.9011539 46.9246589,49.3496375 C47.0305531,49.8557133 46.7377869,49.9476156 47.1688383,50.3090983 C47.324565,50.4169305 49.1496814,50.3960993 50.0005718,49.6253446 C50.1749857,49.4697233 50.273405,49.4023282 50.4590311,49.1646074 C50.6745568,48.8999285 50.6546238,48.7871949 50.8377584,48.5029102 C51.0931501,48.1414276 51.1230496,48.3791484 51.2987093,47.9331155 C51.4644024,47.5642806 51.387162,47.3265598 51.4830896,47.0263453 C51.7484478,46.8180333 52.0113144,46.8008782 52.2255943,46.511692 C52.500919,45.2409885 51.767135,45.3721025 52.4822318,44.6111508 C53.154971,43.9114674 53.6919165,43.7717758 53.8576097,43.5414071 C54.6188016,42.5341571 53.3518095,40.1263147 53.7704027,39.2563055 C54.1404093,38.489227 54.3272813,38.4046768 54.7259415,37.7638109 C55.4597255,36.5801082 56.4152643,36.6033902 56.9621763,35.0582048 C57.1303611,34.5974676 57.7819214,33.7507403 57.4791888,33.2201573 C57.2262887,33.0277749 55.7425251,33.6808945 55.2454456,33.5424283 C54.9215342,32.7827019 55.1183727,32.6111508 54.3546892,32.0425814 C53.3405972,31.2816297 54.0245486,31.4188706 53.3692509,30.6432145 C53.0565518,30.2658021 53.174904,30.3356479 53.0764848,29.7744307 C53.0067192,29.3663842 52.7737521,29.2438476 52.627992,28.9583376 C52.4797402,28.6728275 51.8954538,27.5038293 52.0038396,27.1595017 C52.5196062,27.0908812 52.7837187,27.7746349 53.0067192,28.2120903 C53.1537252,28.4976003 53.3206642,28.5968549 53.4278041,28.8272235 C53.5835308,29.1347902 53.4851115,29.359032 53.7205702,29.7033595 C54.2176497,30.5035229 54.1977167,29.9043194 54.6873213,31.4495047 C54.8530145,31.9041152 55.0174618,32.3575003 55.1844008,32.8035331 C55.9543134,32.7581946 56.6793767,32.2043296 57.4119149,31.9433269 C58.0946205,31.6958031 57.6560943,31.7411416 58.044788,31.4176453 C58.3089004,31.2044317 58.4658729,31.3122639 58.7573932,31.1272337 C59.1398579,30.8882876 60.2922351,29.5746962 60.146475,29.0882263 C59.852463,28.727969 59.93967,28.8603084 59.4911772,28.6360666 C58.9243322,28.3505565 59.3043052,28.2892883 58.9143657,27.9290309 C58.5144596,28.2194425 58.3387999,28.5674461 57.6062617,28.5196569 C57.5962952,28.4804452 57.5477085,28.1973859 57.537742,28.1888083 C57.4306021,27.8898193 57.1764562,27.7366486 56.970897,27.5124068 C56.690589,27.2207699 56.3753983,27.0823037 56.4065436,26.4500153 C57.1565232,26.0591239 57.0593497,26.7514551 57.5763622,27.1827836 C58.3674536,27.8493822 58.2976881,27.5516185 59.1112041,27.5124068 C59.5696634,28.1189625 59.6369373,28.073624 60.4093416,28.1434698 C60.8379013,28.1900337 61.8544849,28.0442153 62.1185973,28.1275401 C62.4587044,28.4351067 62.801303,28.7438987 63.1326893,29.05024 C63.2896618,29.3504544 63.161343,29.4717655 63.4453884,29.6751761 C63.8465403,29.9508833 63.8266073,29.6886552 64.2464464,29.6273869 C64.3348991,29.8810375 64.3934523,30.6040029 64.4819051,30.9801899 C64.6388775,31.6884509 64.8805653,32.1430614 65.0973368,32.7581946 C65.223164,33.118452 65.7601095,34.4271418 65.8884282,34.4504238 C66.2883343,34.511692 66.6296871,33.7041765 66.6994527,33.403962 C66.8751123,32.5890943 66.7368271,32.4359236 66.8178049,31.7509446 C67.4706111,31.3588277 67.8505841,30.6971306 68.4361163,30.2131114 C68.9269668,29.8050648 68.6329548,29.9692638 68.9132628,29.5771469 L68.9132628,29.5771469 L68.9456539,29.5354845 C69.6482926,29.4203002 69.6682256,29.4043705 70.2637244,29.2144389 C70.3559145,29.4791177 70.4518422,29.6616971 70.5390491,29.798938 L70.5390491,29.798938 L70.645773,30.4348211 C70.8788641,31.9236636 71,33.447922 71,34.9993873 C71,51.5687736 57.344641,65 40.5,65 C35.6039539,65 30.9794951,63.8640866 26.8795237,61.8508118 C26.8658198,61.844685 26.8533617,61.8373328 26.8396577,61.831206 C26.2080304,61.5211886 25.5913528,61.1891147 24.9883792,60.8374349 C24.9721836,60.827632 24.9547423,60.8178291 24.9385467,60.8080261 C24.3380647,60.4575717 23.7500408,60.0850608 23.1769668,59.69662 C23.1595254,59.6843664 23.142084,59.6733381 23.1233968,59.6598591 C22.5528143,59.270193 21.9959358,58.8621464 21.4552528,58.4357194 C21.4365656,58.4222404 21.4203701,58.4087614 21.4029287,58.3952823 C20.8622457,57.9651792 20.3365125,57.5203717 19.8257291,57.0571837 C19.8120252,57.0437047 19.7958296,57.0290003 19.7821256,57.0155213 C19.2713422,56.5498826 18.7755085,56.0683141 18.2983621,55.5720413 C18.2883956,55.5597876 18.2759374,55.5463086 18.2647251,55.5340549 C18.0367413,55.2938834 17.8137407,55.0524865 17.5919859,54.8049627 C17.5795278,54.7914837 17.5670697,54.7780047 17.5533657,54.7645257 C17.3241361,54.5059737 17.0998897,54.2461963 16.878135,53.980292 C16.8719059,53.9741652 16.8681685,53.966813 16.8631852,53.9606862 C16.6526428,53.708261 16.4495752,53.4521597 16.2477535,53.1923823 C16.2278204,53.1666496 16.2078874,53.140917 16.1879544,53.1151843 C15.776836,52.5833759 15.3844049,52.0393138 15.0119067,51.479322 L15.0119067,51.479322 L14.9396495,51.3739406 C14.5721346,50.8200756 14.2220611,50.2539569 13.8931664,49.6743592 L13.8931664,49.6743592 L13.8196634,49.5444705 C13.4945062,48.9697743 13.1892819,48.3828245 12.9014991,47.7848463 C12.8778286,47.7358317 12.855404,47.6855917 12.8317335,47.6353518 C12.6946941,47.3449403 12.5576546,47.0508526 12.4305817,46.7543143 L12.4305817,46.7543143 L12.4243526,46.7408353 C12.2935422,46.434494 12.1652234,46.125702 12.0431337,45.8144593 C12.0232007,45.762994 12.0032677,45.7103033 11.9833347,45.6576126 C11.8749489,45.3757786 11.7703006,45.0939447 11.6681439,44.8084346 C11.6581774,44.7765751 11.6469651,44.7447156 11.6369986,44.7153069 C11.527367,44.4028388 11.4252104,44.0866946 11.3255453,43.7705504 C11.3093497,43.7178597 11.2956458,43.6663944 11.2794502,43.6137037 C11.1934891,43.3343204 11.113757,43.0524865 11.0352708,42.7682018 L11.0352708,42.7682018 L10.9954048,42.6248341 C10.9094437,42.3062392 10.8297116,41.9827428 10.7549628,41.6592464 C10.7437505,41.6126825 10.7362756,41.5648933 10.7238175,41.5183294 C10.660281,41.2328194 10.5992362,40.9448586 10.5431746,40.6568978 L10.5431746,40.6568978 L10.507046,40.4743184 C10.447247,40.1471459 10.3899395,39.8175227 10.340107,39.4866742 C10.333878,39.4511386 10.3288947,39.415603 10.3239114,39.3800674 C10.2790622,39.0823037 10.2391961,38.7820892 10.2030676,38.4794241 C10.1955927,38.4108036 10.1881178,38.3421832 10.1818887,38.2747881 C10.1432685,37.9378127 10.1121232,37.599612 10.0859611,37.2601858 C10.0834695,37.2467068 10.0834695,37.2344532 10.0809779,37.2209742 C10.0573074,36.8974778 10.0411118,36.5715307 10.0274079,36.2468089 C10.0236705,36.1745124 10.0211788,36.0997651 10.019933,36.0262432 C10.0074749,35.6855917 10,35.3437149 10,34.9993873 C10,32.7790258 10.2454252,30.6150311 10.7113594,28.5319105 C11.4339311,29.3945675 11.1436566,29.3051159 11.1698186,30.2388441 C11.6681439,30.684877 12.4094028,31.0684162 13.1244996,31.3992648 C13.962932,31.7852548 13.5131934,31.6614929 14.3242178,31.5548861 C14.8611633,31.4764628 14.9197165,31.9004391 15.2423822,32.1700194 C15.9649538,32.8157868 16.5405196,32.0854692 17.1472306,33.3917084 C17.2333001,33.5815334 17.2433231,33.6493431 17.243994,33.6787346 L17.2438342,33.6964686 C17.2453767,33.7249938 17.2857326,33.6953858 17.898456,34.2764219 C18.2211216,34.4614521 18.5537538,34.6452568 18.8851401,34.8302869 C19.09942,34.4908608 18.9050731,34.3928316 19.3149457,34.216379 C19.5292256,34.3683243 19.7821256,34.8523435 19.8705784,35.1991218 C20.2816968,37.0825079 18.2883956,37.0616767 19.1579732,38.6276933 C18.99228,39.0443174 18.7954415,38.9609925 18.9237603,39.4609415 C19.0396209,40.0050036 19.2065599,39.8530583 19.4706723,40.1998366 C20.0350257,40.922802 20.7102565,42.8539773 21.4241075,43.3441234 C21.4328282,43.3600531 21.454007,43.3674053 21.4814149,43.3759828 C21.9996732,43.7215358 22.6437587,43.9212703 22.9078711,44.3513734 C22.975145,44.4702338 23.0312066,44.6246298 23.0773017,44.8072092 C23.3625929,45.9504748 23.2529614,48.1794139 23.522057,49.1204942 C23.9344212,50.5443684 23.561923,50.6350454 23.708929,51.4903503 C23.7774487,51.8591851 23.9244547,51.8836924 24.0415611,52.4902481 C24.1001144,52.8505055 24.1873213,53.2842847 24.2957071,53.5734708 C24.7554121,53.3602573 24.1686341,53.4141734 24.5012662,53.2842847 C24.8326526,53.1445931 24.5598195,53.9508833 24.5299199,54.121209 C24.4040928,54.7216379 24.7055796,54.9213724 24.7653786,55.1064025 C24.8725186,55.420096 24.7255126,55.6357602 25.096765,56.1050751 C25.1478433,56.1724701 25.1813245,56.2142857 25.2058515,56.2435796 L25.2612123,56.3069539 C25.2917347,56.3415705 25.3210114,56.3783315 25.4181848,56.5216992 C25.7595376,57.0277749 26.2292092,57.3806801 26.7350094,57.6514858 C27.0315129,57.8058818 27.7353974,58.112223 28.0655379,58.035025 C28.4554775,57.9431226 28.3495834,57.9884611 28.3595499,57.544879 C27.5858998,57.4897376 27.2931337,56.9199428 26.9318479,56.3893597 C27.0003676,56.0291024 27.2345805,55.3980394 27.26448,55.1664454 C27.0389878,54.866231 26.8633282,54.8895129 26.6091823,54.7731032 C26.6677355,54.0746452 26.717568,54.6285102 26.8832612,54.0280813 C26.9517809,53.7817829 27.0103341,53.5367099 27.0900662,53.2830593 C26.6590148,53.0196058 26.8944735,53.4043705 26.6403276,52.9436332 C26.8247079,52.7586031 26.9517809,52.8750128 27.2358263,52.7586031 C27.3031002,51.9584397 26.9916469,52.096906 27.7229393,51.9584397 C28.6024835,51.7979169 28.5327179,51.3040948 28.1029123,50.6509752 C27.9683645,50.4365363 28.0555714,50.5982845 27.918532,50.3605637 C29.3624295,50.6129889 29.0210767,50.2368018 29.5081897,49.113142 C29.6265419,48.8435617 29.7635814,48.7590115 29.9492076,48.4195854 C30.593293,47.2297559 29.1668369,46.7604411 31.6185973,46.0828143 C32.2925823,45.9063617 32.4968957,44.4445012 32.5367617,43.7374655 C32.5853484,42.5059737 32.2140961,42.7596242 33.2979536,41.2058613 C33.6492729,40.6997856 33.7564129,40.0748494 33.3378196,39.4977024 C33.0338412,39.3004187 32.9566008,39.429082 32.6351809,39.1987134 C31.794257,38.5774533 32.2240626,38.6754825 31.1190262,38.4978046 C30.406421,38.375268 30.6493546,38.4683958 30.3291806,38.1608292 C29.7710563,37.6302461 29.2266359,37.9525171 28.825484,37.4378638 C28.7382771,37.2369039 28.6498244,37.0371694 28.5713381,36.8288573 C28.5314721,36.7443072 28.4741647,36.6756867 28.4430194,36.6070663 C28.238706,36.1610334 28.405645,36.1659349 28.0343926,35.8216073 C27.1548485,34.9822322 27.1548485,35.5434494 26.3836901,35.2456857 C25.9949963,34.8768508 25.5925986,34.4969876 25.1914468,34.1220259 C25.1142064,34.0068416 25.1042398,33.8990095 25.0058206,33.789952 C24.9970999,33.7825998 24.9672004,33.7617686 24.9584797,33.7531911 C24.9584797,33.7372613 24.929826,33.7213316 24.9198595,33.7213316 C24.8401274,33.6980496 24.7516747,33.6772184 24.683155,33.6453589 C24.102606,33.440723 24.0590025,33.6453589 23.6341802,33.6392321 C23.4934033,33.6367814 23.315252,33.6134994 23.0623519,33.544879 C22.4780655,33.3831308 22.4182665,32.8059839 21.9099747,33.3990606 C21.8327343,33.2434392 21.7442815,33.0914939 21.6670411,32.9297457 C21.5960297,32.9750842 21.5387223,33.0142959 21.4702026,33.0522822 C20.7775304,33.454202 20.70029,33.1441846 20.4062781,33.7985296 C20.2418307,34.1747166 20.3489707,33.9835597 20.093579,34.2911263 C19.6438404,34.2212805 19.7335389,33.9210661 19.2451801,34.0056163 C18.8054081,34.0828143 18.7755085,34.4038599 18.278429,34.0436026 C17.875097,33.7464515 17.8956335,33.2745903 17.9528508,32.7611456 L17.9884855,32.4491537 C18.0110464,32.2392525 18.0270862,32.026958 18.011825,31.8207904 C17.1746385,31.329419 17.1547055,31.8073113 16.5193407,31.5536608 C16.4122008,31.2669254 16.6277265,30.8919636 16.7062127,30.6836516 C16.8233192,30.3307465 16.9591128,29.9925457 16.8719059,29.5305831 C15.983641,29.3908915 16.0521608,29.6837537 15.776836,30.221689 C15.3682093,31.0292045 13.7673393,30.9287246 13.6988195,29.1997345 C13.6589535,28.5613193 13.9230659,28.1385684 14.0401724,27.5614214 C14.1385916,27.0847544 14.5210563,26.9083018 14.9197165,26.6387215 C15.6422882,26.1779843 15.8852218,26.7318493 16.3847929,26.6227918 C16.8345315,26.5321148 16.6862797,26.0088839 17.7713831,26.3152252 C18.7767544,26.5995099 18.5226084,26.193914 18.7082346,27.4229552 C18.9424475,27.5075054 19.1853811,27.5920555 19.439527,27.6692535 C19.3734989,25.8152762 18.7867209,26.3152252 20.006372,25.2393546 C20.3875909,24.9097314 20.5233845,24.9158583 20.9345029,24.6536301 C21.4241075,24.3460635 21.5312474,24.3325845 21.4241075,23.5385479 C21.4415489,23.5238436 21.4614819,23.5005616 21.4913814,23.4772797 C21.7841475,23.2003472 22.0868802,22.9160625 22.3896128,22.6305524 C22.6935912,22.3242112 23.1906707,22.1771674 23.6192305,22.0448279 C23.6777837,21.4149903 23.7537783,21.3855815 24.2545952,21.1846217 L24.2545952,21.1846217 L24.2944612,21.1699173 C24.683155,21.0093945 24.9883792,20.8243643 25.397006,20.7851527 C25.1154522,21.2250587 25.210134,20.6920249 25.210134,21.3243133 C25.6212523,21.2299602 25.7782248,21.0228735 26.2939915,20.8697028 C26.7649089,20.7238844 27.0950494,20.7238844 27.1760273,20.1933013 C26.8732947,20.2472174 25.7109509,20.8697028 26.0224042,19.8624528 C26.1494772,19.4691106 26.1993097,19.9151435 26.2279634,19.3245175 C26.0111919,19.238742 25.8093701,19.1554171 25.6025651,19.0622894 C26.5120088,18.5770448 26.3450698,19.1002757 26.8321828,19.3245175 C26.9704681,19.1088533 26.8732947,19.3000102 26.8533617,19.1002757 C26.8471326,19.0095987 26.8359203,18.9581334 26.8271996,18.92995 C27.1859938,18.8846115 27.4501062,18.9544573 27.791459,18.8539773 C28.1701863,18.738793 28.1328119,18.5770448 28.6597909,18.4851424 C28.3969243,19.1309098 27.9882975,19.1394874 27.7615595,19.769325 C27.8599788,19.8011845 29.3350216,20.1173287 29.3624295,20.1173287 C29.372396,19.8293679 29.3823626,19.5463086 29.3923291,19.2546717 C29.2067029,19.1774737 29.0210767,19.0990503 28.845417,19.0145002 C29.119496,18.0060247 29.7448942,17.5685694 28.338371,17.0306341 C28.2212646,16.3003166 28.2897843,16.0393138 28.0256719,15.4303074 C27.4401397,15.5222097 27.5472796,15.8934954 27.0688873,15.9755948 C26.4447349,16.0748494 26.6590148,15.5369141 26.6689813,15.12029 C26.1420023,14.8911467 26.4048689,14.7759624 25.9177559,14.6914122 C25.7707499,14.6607781 25.0980108,14.5909323 24.9323176,14.5848055 C24.7603954,14.7833146 24.6432889,14.9695701 24.5585736,15.1423466 C24.0029409,16.305218 25.0394576,16.9277035 22.8916755,17.3700602 C22.7334572,17.912897 22.7135242,18.7669764 22.0794053,18.3295211 C21.807818,17.8834882 22.1990033,17.5587665 22.1990033,17.1298887 C21.9224328,17.0820995 21.6994322,17.036761 21.5237726,16.9901971 C20.6155747,16.7353211 20.9083408,16.4681916 20.0013888,16.4142755 C19.9403439,15.7305218 19.8344498,16.1140611 19.8444163,15.5369141 C20.2231435,15.1913612 20.8585083,14.8139487 21.5337391,14.4843255 C22.1292378,14.2000408 22.7633568,13.9525171 23.2704027,13.7993465 C23.1831958,13.96232 23.0947431,14.1228428 23.0062903,14.2760135 C23.6316886,14.6374962 23.3588555,14.8139487 23.6815211,14.6975391 C23.9730414,14.5897069 23.6815211,14.5602982 23.6815211,14.552946 C23.6316886,14.4291841 23.0748101,14.4536914 23.6989625,14.2233228 C23.9942202,14.1203921 24.1399804,14.2600837 24.42278,14.3152252 C24.3854056,13.5150618 23.9556,14.0223629 23.7899069,13.3606658 C24.1499469,13.512611 24.4202884,13.4832023 24.649518,13.3533136 C25.0282452,13.1388747 25.2873744,12.6536301 25.6349563,12.2615133 C26.3762152,12.2615133 26.5331876,12.1218217 27.0813455,12.6683345 C27.3242791,12.90483 27.1785189,12.5984887 27.3454579,12.968549 C27.2470386,13.0763811 26.6316069,13.5456959 26.5331876,13.5910344 C25.9763091,13.8691923 25.790683,13.4133565 25.4094641,13.8826713 C25.5975819,14.0517717 25.850482,13.9672215 26.0448289,13.9610947 C26.357528,13.935362 26.3874275,13.9831512 26.564333,14.1755335 C27.0327588,14.68406 26.884507,14.5897069 27.6656319,14.798019 C27.7154644,14.7453283 27.7640511,14.6901869 27.8213585,14.6289186 C27.8338167,14.6129889 27.8512581,14.5897069 27.8711911,14.5762279 L27.8711911,14.5762279 L27.9210236,14.5443684 C28.2424434,14.3679159 27.9696103,14.7134688 28.3981701,14.4598182 C28.8877747,14.1755335 28.3607957,13.9745737 28.3508292,13.4525682 C28.9176742,13.3986521 28.6049751,13.754008 29.1319541,13.7466558 C29.5131729,13.7380782 29.6987991,13.4758501 29.7772854,13.2221995 C29.4147537,12.7761666 29.3748877,12.9844787 29.1020546,12.7835188 C28.7906013,12.5519248 28.9762274,12.2762177 28.7806348,11.9845808 C28.652316,11.8007761 28.2735888,11.7529868 28.0580631,11.6610844 C27.0987869,11.2309813 28.5750756,11.0912897 25.4692631,11.0667824 C25.1976758,11.0667824 24.9572339,11.1182477 24.756658,11.2138262 C24.4589086,11.3510671 24.249612,11.5851118 24.1499469,11.8926784 C24.2782657,12.1316246 24.502512,12.1316246 24.6569929,12.3325845 C24.502512,12.6413765 24.0901479,12.9391402 23.6715546,12.9709997 C23.9057675,11.824058 23.201883,13.2234249 23.368822,11.5544777 C23.7500408,11.4013071 24.1885671,11.3866027 24.482579,11.1170224 C24.3654726,11.0484019 24.2371538,10.9773307 24.1325055,10.9001327 C23.5644147,10.793526 23.3202353,11.3694476 22.9689159,11.5863372 C22.8518095,11.3241091 22.9975696,11.3326866 23.0274692,11.0238946 C22.5777306,10.9932605 21.9722653,11.1096702 21.6595662,11.4466456 C21.9834777,11.7701419 21.9137121,11.7088737 22.4307246,11.8093536 C22.0993383,12.4477688 22.6188424,12.455121 22.0021649,12.8080261 C21.9934442,12.7871949 21.9859693,12.7296028 21.9760028,12.7381803 C21.9760028,12.7259267 21.9635446,12.6769121 21.9635446,12.6695599 C21.9336451,12.5531502 21.9037456,12.4379659 21.8850584,12.3240069 C21.7392983,12.3154294 21.6309125,12.3240069 21.5424598,12.3546411 C21.3194592,12.4379659 21.2422188,12.6389258 21.1139,12.8692944 C20.7650723,12.8827734 20.2966465,12.9636475 19.9415897,12.8435617 C20.0524671,12.7443072 20.1658361,12.646278 20.2792051,12.545798 C20.4648313,12.5225161 20.4673229,12.441642 20.9581734,12.3240069 C20.9170615,12.1622588 20.8896536,12.1622588 20.8497876,12.0997651 L20.8497876,12.0997651 L20.8360837,12.0715817 C26.1432481,7.66026754 33.0051875,5 40.5,5 L40.5,5 Z M56.8076954,42.1751251 C56.3766441,42.3883386 56.316845,42.8809354 55.996671,43.1578679 C55.6453517,43.4727867 55.1756801,43.3281936 55.0398864,43.9126927 C54.8642268,44.6430103 55.3326526,44.4199939 54.8143942,45.3733279 C54.6300139,45.7274584 54.6200474,46.6097212 54.9040928,46.8731747 C55.7524916,47.6794649 56.2109509,45.6416828 56.4065436,45.0032676 C56.5523037,44.5498826 56.690589,44.0352292 56.8463157,43.6112529 C57.0020423,43.1578679 57.2250429,42.7571735 56.8076954,42.1751251 Z M57.0419258,19.1284912 C57.6135599,18.8909824 57.8748331,18.9745199 58.1107708,19.4478995 C57.8368298,19.9704189 58.1836106,19.4986773 57.7244031,19.8082577 C57.5153846,19.950763 57.6008921,19.8082577 57.3174503,20.0441285 C57.3902901,20.8549344 58.3340406,21.4740953 58.916759,21.6673783 C58.8059158,22.1915357 58.916759,21.7623818 58.6934892,22.0686863 C58.6681536,22.0883422 58.5319748,22.1915357 58.4813037,22.2750732 C58.7789968,22.9630297 59.0877742,22.912252 58.976931,23.9196169 C58.1836106,24.1456598 57.7354874,23.8688392 57.1290169,23.4151155 C57.1163491,22.5830157 57.2525279,22.7369869 57.3174503,22.1407579 C56.8059882,21.5641848 56.0855076,21.0826153 56,19.8262756 C56.1361788,19.7148922 56.7949039,19.2316846 57.0419258,19.1284912 Z M53.8258956,19.0655942 C54.0555545,18.9674641 54.1979431,19.00545 54.4383194,19.0165292 C54.4857822,19.7825768 54.2821513,19.1558106 54.246937,19.9503476 C54.9420379,20.3270405 55.9510061,20.6562511 56,21.5204288 C55.0645227,22.1978429 54.3678907,21.5204288 53.5411186,21.3241687 C53.1935681,21.2339523 51.980969,21.6106452 51.5844247,21.7499266 C51.1649144,21.8907907 51.5966731,21.8797115 51.0317122,22 C50.9597524,21.5615801 51.0669266,22.1282022 51.079175,21.6517965 C51.079175,21.6217244 51.0669266,21.5821558 51.079175,21.5505009 C51.0546781,20.7575466 50.8877926,21.2640244 51.1281689,20.5280489 C51.2828059,20.0421467 51.619639,19.565741 51.9074782,19.2460269 C52.6270761,19.2666026 52.6025792,19.5340862 52.9746266,20.0706361 C53.166009,20.0516432 53.4186338,20.0516432 53.5748019,19.9123618 C54.1275143,19.3853083 53.6115473,19.9012826 53.5870504,19.4739419 C53.5870504,19.3853083 53.2869627,19.3140849 53.8258956,19.0655942 Z M40.800241,15.8751149 C40.2919492,16.046666 40.3417817,15.9988767 39.9979373,16.3003166 C39.9804959,17.3749617 40.3592231,17.0147044 40.7205089,17.5452875 C40.5585532,17.9986725 40.5274079,17.644542 40.3417817,18.1138568 C40.1760886,18.507199 40.3816477,18.1530685 40.2745078,18.8368222 C40.5573074,18.852752 40.9771465,18.752272 41.347153,18.7204125 C41.8753778,18.675074 41.8641655,18.6285102 42.0510375,18.0979271 C41.7570256,17.745022 41.4642595,17.3908915 41.1627726,17.0379863 C40.780308,16.4681916 41.1627726,16.8615337 41.0444204,16.3836414 C40.9572135,16.214541 40.8787272,16.046666 40.800241,15.8751149 Z"
       id="TheChanceryLaneProject"
       fill="#000000"
       fill-rule="nonzero"
       style="fill:#ffffff;fill-opacity:1" />
  </g>
</svg>
